<svg width="301" height="94" viewBox="0 0 301 94" fill="none" xmlns="http://www.w3.org/2000/svg">
<path d="M110.945 48.6055H103.24L101.775 53H97.1025L105.042 31.6719H109.114L117.098 53H112.425L110.945 48.6055ZM104.427 45.0459H109.759L107.078 37.0625L104.427 45.0459ZM124.832 31.6719L130.311 47.1406L135.76 31.6719H141.531V53H137.122V47.1699L137.562 37.1064L131.805 53H128.787L123.045 37.1211L123.484 47.1699V53H119.09V31.6719H124.832ZM150.042 53H145.647V31.6719H150.042V53ZM170.872 45.8955C170.706 48.1904 169.856 49.9971 168.323 51.3154C166.8 52.6338 164.788 53.293 162.288 53.293C159.554 53.293 157.4 52.375 155.828 50.5391C154.266 48.6934 153.484 46.1641 153.484 42.9512V41.6475C153.484 39.5967 153.846 37.79 154.568 36.2275C155.291 34.665 156.321 33.4688 157.659 32.6387C159.007 31.7988 160.569 31.3789 162.347 31.3789C164.808 31.3789 166.79 32.0381 168.294 33.3564C169.798 34.6748 170.667 36.5254 170.901 38.9082H166.507C166.399 37.5312 166.014 36.5352 165.35 35.9199C164.695 35.2949 163.694 34.9824 162.347 34.9824C160.882 34.9824 159.783 35.5098 159.051 36.5645C158.328 37.6094 157.957 39.2354 157.938 41.4424V43.0537C157.938 45.3584 158.284 47.043 158.978 48.1074C159.681 49.1719 160.784 49.7041 162.288 49.7041C163.646 49.7041 164.656 49.3965 165.32 48.7812C165.994 48.1562 166.38 47.1943 166.478 45.8955H170.872ZM189.9 31.6719V45.7197C189.9 48.0537 189.168 49.8994 187.703 51.2568C186.248 52.6143 184.256 53.293 181.727 53.293C179.236 53.293 177.259 52.6338 175.794 51.3154C174.329 49.9971 173.582 48.1855 173.553 45.8809V31.6719H177.947V45.749C177.947 47.1455 178.279 48.166 178.943 48.8105C179.617 49.4453 180.545 49.7627 181.727 49.7627C184.197 49.7627 185.452 48.4639 185.491 45.8662V31.6719H189.9ZM204.563 47.4043C204.563 46.5742 204.271 45.9395 203.685 45.5C203.099 45.0508 202.044 44.582 200.521 44.0938C198.997 43.5957 197.791 43.1074 196.902 42.6289C194.48 41.3203 193.27 39.5576 193.27 37.3408C193.27 36.1885 193.592 35.1631 194.236 34.2646C194.891 33.3564 195.823 32.6484 197.034 32.1406C198.255 31.6328 199.622 31.3789 201.136 31.3789C202.659 31.3789 204.017 31.6572 205.208 32.2139C206.399 32.7607 207.322 33.5371 207.977 34.543C208.641 35.5488 208.973 36.6914 208.973 37.9707H204.578C204.578 36.9941 204.271 36.2373 203.655 35.7002C203.04 35.1533 202.176 34.8799 201.062 34.8799C199.988 34.8799 199.153 35.1094 198.558 35.5684C197.962 36.0176 197.664 36.6133 197.664 37.3555C197.664 38.0488 198.011 38.6299 198.704 39.0986C199.407 39.5674 200.438 40.0068 201.795 40.417C204.295 41.1689 206.116 42.1016 207.259 43.2148C208.401 44.3281 208.973 45.7148 208.973 47.375C208.973 49.2207 208.274 50.6709 206.878 51.7256C205.481 52.7705 203.602 53.293 201.238 53.293C199.598 53.293 198.104 52.9951 196.756 52.3994C195.408 51.7939 194.378 50.9688 193.665 49.9238C192.962 48.8789 192.61 47.668 192.61 46.291H197.02C197.02 48.6445 198.426 49.8213 201.238 49.8213C202.283 49.8213 203.099 49.6113 203.685 49.1914C204.271 48.7617 204.563 48.166 204.563 47.4043ZM225.086 45.2363C225.086 47.707 224.539 49.6699 223.445 51.125C222.352 52.5703 220.887 53.293 219.051 53.293C216.883 53.293 215.223 52.5312 214.07 51.0078V59.0938H212.327V37.1504H213.953L214.041 39.3916C215.184 37.7021 216.839 36.8574 219.007 36.8574C220.901 36.8574 222.386 37.5752 223.46 39.0107C224.544 40.4463 225.086 42.4385 225.086 44.9873V45.2363ZM223.328 44.9287C223.328 42.9072 222.913 41.3105 222.083 40.1387C221.253 38.9668 220.096 38.3809 218.611 38.3809C217.537 38.3809 216.614 38.6396 215.843 39.1572C215.071 39.6748 214.48 40.4268 214.07 41.4131V49.0156C214.49 49.9238 215.091 50.6172 215.872 51.0957C216.653 51.5742 217.576 51.8135 218.641 51.8135C220.115 51.8135 221.263 51.2275 222.083 50.0557C222.913 48.874 223.328 47.165 223.328 44.9287ZM238.987 53C238.812 52.502 238.699 51.7646 238.65 50.7881C238.035 51.5889 237.249 52.209 236.292 52.6484C235.345 53.0781 234.339 53.293 233.274 53.293C231.751 53.293 230.516 52.8682 229.568 52.0186C228.631 51.1689 228.162 50.0947 228.162 48.7959C228.162 47.2529 228.802 46.0322 230.081 45.1338C231.37 44.2354 233.162 43.7861 235.457 43.7861H238.636V41.9844C238.636 40.8516 238.284 39.9629 237.581 39.3184C236.888 38.6641 235.872 38.3369 234.534 38.3369C233.313 38.3369 232.303 38.6494 231.502 39.2744C230.701 39.8994 230.301 40.6514 230.301 41.5303L228.543 41.5156C228.543 40.2559 229.129 39.167 230.301 38.249C231.473 37.3213 232.913 36.8574 234.622 36.8574C236.39 36.8574 237.781 37.3018 238.797 38.1904C239.822 39.0693 240.35 40.2998 240.379 41.8818V49.3818C240.379 50.915 240.54 52.0625 240.862 52.8242V53H238.987ZM233.479 51.7402C234.651 51.7402 235.696 51.457 236.614 50.8906C237.542 50.3242 238.216 49.5674 238.636 48.6201V45.1338H235.501C233.753 45.1533 232.386 45.4756 231.399 46.1006C230.413 46.7158 229.92 47.5654 229.92 48.6494C229.92 49.5381 230.247 50.2754 230.901 50.8613C231.565 51.4473 232.425 51.7402 233.479 51.7402ZM247.791 33.0928V37.1504H251.072V38.5859H247.791V49.1475C247.791 50.0264 247.947 50.6807 248.26 51.1104C248.582 51.54 249.114 51.7549 249.856 51.7549C250.149 51.7549 250.623 51.7061 251.277 51.6084L251.351 53.0439C250.892 53.21 250.267 53.293 249.476 53.293C248.274 53.293 247.4 52.9463 246.854 52.2529C246.307 51.5498 246.033 50.5195 246.033 49.1621V38.5859H243.118V37.1504H246.033V33.0928H247.791ZM262.029 38.6445C261.658 38.5762 261.263 38.542 260.843 38.542C259.749 38.542 258.821 38.8496 258.06 39.4648C257.308 40.0703 256.771 40.9541 256.448 42.1162V53H254.705V37.1504H256.419L256.448 39.6699C257.376 37.7949 258.865 36.8574 260.916 36.8574C261.404 36.8574 261.79 36.9209 262.073 37.0479L262.029 38.6445ZM266.775 53H265.018V37.1504H266.775V53ZM264.71 32.5654C264.71 32.2334 264.817 31.9551 265.032 31.7305C265.247 31.4961 265.54 31.3789 265.911 31.3789C266.282 31.3789 266.575 31.4961 266.79 31.7305C267.015 31.9551 267.127 32.2334 267.127 32.5654C267.127 32.8975 267.015 33.1758 266.79 33.4004C266.575 33.625 266.282 33.7373 265.911 33.7373C265.54 33.7373 265.247 33.625 265.032 33.4004C264.817 33.1758 264.71 32.8975 264.71 32.5654ZM281.556 53C281.38 52.502 281.268 51.7646 281.219 50.7881C280.604 51.5889 279.817 52.209 278.86 52.6484C277.913 53.0781 276.907 53.293 275.843 53.293C274.319 53.293 273.084 52.8682 272.137 52.0186C271.199 51.1689 270.73 50.0947 270.73 48.7959C270.73 47.2529 271.37 46.0322 272.649 45.1338C273.938 44.2354 275.73 43.7861 278.025 43.7861H281.204V41.9844C281.204 40.8516 280.853 39.9629 280.149 39.3184C279.456 38.6641 278.44 38.3369 277.103 38.3369C275.882 38.3369 274.871 38.6494 274.07 39.2744C273.27 39.8994 272.869 40.6514 272.869 41.5303L271.111 41.5156C271.111 40.2559 271.697 39.167 272.869 38.249C274.041 37.3213 275.481 36.8574 277.19 36.8574C278.958 36.8574 280.35 37.3018 281.365 38.1904C282.391 39.0693 282.918 40.2998 282.947 41.8818V49.3818C282.947 50.915 283.108 52.0625 283.431 52.8242V53H281.556ZM276.048 51.7402C277.22 51.7402 278.265 51.457 279.183 50.8906C280.11 50.3242 280.784 49.5674 281.204 48.6201V45.1338H278.069C276.321 45.1533 274.954 45.4756 273.968 46.1006C272.981 46.7158 272.488 47.5654 272.488 48.6494C272.488 49.5381 272.815 50.2754 273.47 50.8613C274.134 51.4473 274.993 51.7402 276.048 51.7402ZM293.772 53.293C292.425 53.293 291.204 52.9609 290.11 52.2969C289.026 51.6328 288.182 50.71 287.576 49.5283C286.971 48.3369 286.668 47.0039 286.668 45.5293V44.8994C286.668 43.376 286.961 42.0039 287.547 40.7832C288.143 39.5625 288.968 38.6055 290.022 37.9121C291.077 37.209 292.22 36.8574 293.45 36.8574C295.374 36.8574 296.897 37.5166 298.021 38.835C299.153 40.1436 299.72 41.9355 299.72 44.2109V45.1924H288.411V45.5293C288.411 47.3262 288.924 48.8252 289.949 50.0264C290.984 51.2178 292.283 51.8135 293.846 51.8135C294.783 51.8135 295.608 51.6426 296.321 51.3008C297.044 50.959 297.698 50.4121 298.284 49.6602L299.383 50.4951C298.094 52.3604 296.224 53.293 293.772 53.293ZM293.45 38.3516C292.132 38.3516 291.019 38.835 290.11 39.8018C289.212 40.7686 288.665 42.0674 288.47 43.6982H297.977V43.5078C297.928 41.9844 297.493 40.7441 296.673 39.7871C295.853 38.8301 294.778 38.3516 293.45 38.3516Z" fill="white"/>
<g clip-path="url(#clip0)">
<path d="M93.0078 49.3151C92.8828 49.6111 92.6624 49.7139 92.3404 49.7108C91.3055 49.7015 90.2692 49.7186 89.2344 49.7217C89.1164 49.7305 88.9979 49.7183 88.8842 49.6859C88.8416 49.6684 88.8034 49.6417 88.7723 49.6078C88.7412 49.5739 88.718 49.5335 88.7045 49.4896C88.7044 49.4445 88.7158 49.4001 88.7377 49.3605C88.7596 49.321 88.7912 49.2877 88.8295 49.2637C89.1656 49.1749 89.1922 48.935 89.1922 48.653C89.1922 47.3412 89.201 46.0289 89.2187 44.716C89.2187 44.3234 89.1593 43.9932 88.6841 43.909C88.6436 43.8883 88.6092 43.8575 88.5843 43.8195C88.5593 43.7815 88.5447 43.7378 88.5419 43.6925C88.5419 43.6224 88.656 43.5569 88.7279 43.4993C88.7498 43.4806 88.7982 43.4899 88.8342 43.4899H92.3763C92.6796 43.4899 92.7718 43.6909 92.8218 43.9433C92.8656 44.1692 92.8937 44.3826 92.6014 44.4668C92.3873 43.9449 92.3263 43.9121 91.7213 43.9527C91.5322 43.9651 91.3415 43.9527 91.1508 43.9527H90.5537V46.5357C90.9429 46.5357 91.3352 46.5451 91.7338 46.5264C91.8042 46.5264 91.8636 46.3971 91.9371 46.3379C92.0105 46.2787 92.1043 46.1821 92.1622 46.2054C92.2094 46.2242 92.2512 46.2542 92.2842 46.2927C92.3172 46.3313 92.3402 46.3773 92.3513 46.4267C92.3732 46.7514 92.3732 47.0772 92.3513 47.4019C92.3369 47.4489 92.3104 47.4913 92.2745 47.5249C92.2385 47.5585 92.1944 47.5822 92.1465 47.5936C92.0699 47.5936 91.9183 47.4985 91.9152 47.4378C91.898 47.0374 91.6369 47.0514 91.3509 47.0654C91.0914 47.0763 90.8288 47.0654 90.5537 47.0654V49.1453H92.4295C92.4336 49.1157 92.442 49.0868 92.4545 49.0596C92.5154 48.9599 92.5811 48.8617 92.6436 48.7636C92.7405 48.829 92.839 48.8913 92.9328 48.9599C92.9572 48.9865 92.9767 49.017 92.9906 49.0503L93.0078 49.3151Z" fill="white"/>
<path d="M48.3297 94C47.7329 93.7724 47.2284 93.3544 46.8947 92.8113C46.8082 92.6742 46.7508 92.521 46.7259 92.361C46.7063 92.3058 46.7082 92.2453 46.7311 92.1913C46.754 92.1373 46.7962 92.0938 46.8496 92.0693C46.9029 92.0447 46.9636 92.0409 47.0196 92.0586C47.0757 92.0762 47.1231 92.1141 47.1526 92.1647C47.2734 92.3112 47.3861 92.4641 47.4902 92.6228C47.6086 92.778 47.7589 92.9062 47.931 92.9987C48.1032 93.0913 48.2933 93.146 48.4884 93.1593C48.6836 93.1726 48.8793 93.1441 49.0625 93.0757C49.2457 93.0074 49.4121 92.9007 49.5505 92.763C49.7818 92.5246 49.8115 92.3159 49.5802 92.0713C49.0659 91.5244 48.5423 90.9807 47.9951 90.4728C47.645 90.1441 47.3167 89.8232 47.2136 89.3293C47.015 88.3478 47.5762 87.6155 48.5735 87.5859C49.1363 87.5704 49.7006 87.5859 50.2633 87.5859C50.307 87.5799 50.3515 87.5836 50.3936 87.5967C50.4357 87.6098 50.4743 87.6321 50.5068 87.6619C50.5392 87.6917 50.5646 87.7282 50.5811 87.769C50.5977 87.8097 50.605 87.8536 50.6025 87.8975C50.6313 88.1561 50.6433 88.4163 50.6384 88.6765C50.6318 88.7323 50.6118 88.7857 50.5803 88.8323C50.5488 88.8789 50.5065 88.9174 50.4571 88.9445C50.2789 89.0021 50.2023 88.865 50.1789 88.7014C50.1554 88.5378 50.1273 88.3602 50.1085 88.1904C50.0929 88.0487 50.0288 87.991 49.8788 87.9941C49.5802 87.9941 49.2816 87.9817 48.9831 87.9801C48.6845 87.9785 48.5407 88.0938 48.4735 88.3976C48.4043 88.7372 48.4506 89.0901 48.6052 89.4005C48.7598 89.7108 49.0137 89.961 49.327 90.1114C50.1492 90.5087 50.5775 91.1832 50.8573 91.9918C50.9401 92.1905 50.9572 92.4103 50.906 92.6194C50.8548 92.8284 50.7381 93.0157 50.5728 93.154C50.1185 93.5885 49.5358 93.8654 48.9112 93.9439C48.8611 93.9554 48.8123 93.9721 48.7658 93.9938L48.3297 94Z" fill="white"/>
<path d="M57.4601 13.6725C57.4726 13.6195 57.4866 13.5962 57.4804 13.5853C57.1412 12.9901 57.3241 12.504 57.7711 12.0491C57.9102 11.9105 57.9587 11.6846 58.0681 11.5116C58.137 11.4298 58.217 11.358 58.3057 11.2982C58.3745 11.3792 58.4917 11.454 58.5058 11.5459C58.584 12.0538 58.6371 12.5664 58.6981 13.0789C58.7231 13.2768 58.5715 13.3157 58.4355 13.3671C58.165 13.4715 58.1322 13.5089 58.0603 13.8345L58.3245 13.9342C60.7443 14.8207 63.0954 15.8835 65.3587 17.114C65.4595 17.1549 65.5642 17.1852 65.6713 17.2044C65.7119 17.0849 65.733 16.9597 65.7338 16.8336C65.6947 16.6797 65.7036 16.5175 65.7595 16.3688C65.8154 16.2201 65.9155 16.092 66.0465 16.0016C66.3904 15.7555 66.7202 15.4891 67.0563 15.232C67.1126 15.1899 67.172 15.1494 67.2485 15.0965C67.3799 15.3442 67.3173 15.5747 67.2736 15.8116C67.2142 16.1231 67.161 16.4347 67.1313 16.737C67.1063 17.0205 66.9203 17.114 66.6921 17.1841C66.4638 17.2542 66.2231 17.2947 66.1559 17.6016C66.6436 17.8898 67.1344 18.1796 67.6237 18.471C69.412 19.5335 71.1643 20.6521 72.743 22.0122C74.0658 23.1429 75.2393 24.4365 76.2351 25.8618C76.887 26.7966 77.5482 27.7314 78.2063 28.6661C78.2468 28.7263 78.2929 28.7827 78.3438 28.8344C78.5252 29.0104 78.6955 28.9902 78.7503 28.7534C78.8956 28.1302 79.3052 27.9448 79.8945 27.937C80.1274 27.937 80.3634 27.7984 80.5917 27.7438C80.6959 27.7337 80.8011 27.7379 80.9043 27.7563C80.9043 27.8654 80.9324 28.0025 80.8777 28.0788C80.5807 28.4885 80.2728 28.8905 79.9398 29.2753C79.8893 29.3119 79.8305 29.3356 79.7686 29.3443C79.7068 29.353 79.6437 29.3464 79.585 29.3251C79.4571 29.2549 79.3092 29.2297 79.1652 29.2534C79.0211 29.2772 78.8893 29.3485 78.7909 29.456C79.2708 30.6354 79.7772 31.7929 80.1977 32.9661C80.6667 34.2405 81.0434 35.5429 81.4764 36.8282C81.5607 37.0182 81.6655 37.1984 81.789 37.3657C81.9463 37.2595 82.0939 37.1396 82.2298 37.0074C82.4987 36.6958 82.8223 36.6677 83.1959 36.7269C83.5085 36.7752 83.8211 36.7752 84.1338 36.8064C84.2278 36.824 84.32 36.8506 84.4089 36.8858C84.362 36.9918 84.3432 37.1351 84.2619 37.1974C83.9712 37.4155 83.6601 37.6025 83.36 37.8066C83.2615 37.8721 83.1694 37.9467 83.0849 38.0294C83.0615 38.0606 83.031 38.086 82.996 38.1035C82.961 38.121 82.9224 38.1301 82.8832 38.1301C82.8441 38.1301 82.8055 38.121 82.7705 38.1035C82.7355 38.086 82.705 38.0606 82.6816 38.0294C82.4065 37.7334 82.1095 37.7848 81.775 37.9375C81.9016 38.4796 82.0345 39.014 82.1486 39.5515C82.5578 41.3988 82.7368 43.2893 82.6816 45.1803C82.6738 45.4125 82.7363 45.4919 82.9677 45.5231C84.2291 45.7396 85.4859 45.9796 86.7442 46.207C86.9318 46.2413 87.1256 46.2444 87.3117 46.2787C87.468 46.3083 87.6055 46.3722 87.6102 46.5731C87.6141 46.6118 87.61 46.6508 87.5981 46.6877C87.5863 46.7247 87.5669 46.7588 87.5412 46.788C87.5156 46.8173 87.4842 46.8409 87.449 46.8575C87.4138 46.8742 87.3756 46.8834 87.3367 46.8847C86.033 47.1153 84.7309 47.3521 83.4288 47.5655C82.7472 47.6715 82.5815 47.8117 82.5409 48.4863C82.4212 50.4746 82.1198 52.4478 81.6405 54.3815C81.6046 54.5264 81.5936 54.6775 81.5639 54.8707C81.6609 54.8224 81.7109 54.8053 81.7531 54.7773C82.1235 54.5249 82.4846 54.5591 82.8473 54.8069C83.1599 55.0203 83.4069 55.3272 83.8071 55.4051C83.8503 55.4247 83.8875 55.4554 83.9149 55.4939C83.9424 55.5325 83.9591 55.5777 83.9634 55.6248C83.9451 55.6723 83.916 55.715 83.8782 55.7493C83.8405 55.7837 83.7953 55.8088 83.7461 55.8226C83.2631 55.8943 82.7754 55.9457 82.2892 55.9956C82.1976 56.0072 82.1047 55.9875 82.0258 55.9397C81.9468 55.8918 81.8865 55.8187 81.8547 55.7323C81.8359 55.6918 81.8344 55.6357 81.8047 55.6076C81.7275 55.5209 81.6334 55.4509 81.528 55.402C81.492 55.3895 81.3717 55.5173 81.3435 55.5998C80.6317 57.5145 79.8108 59.3871 78.8847 61.2084C78.6236 61.7163 78.3454 62.2149 78.0828 62.7212C78.0468 62.7898 78.0234 62.9222 78.0578 62.9549C78.0945 62.9832 78.1365 63.0039 78.1813 63.0159C78.2261 63.028 78.2728 63.0311 78.3188 63.025C78.8394 62.9362 79.0785 63.0624 79.3583 63.5064C79.5287 63.779 79.7679 64.0065 79.9648 64.2636C80.0143 64.3502 80.0521 64.4429 80.0774 64.5393C79.9711 64.5736 79.857 64.6515 79.7647 64.6344C79.2958 64.5518 78.8409 64.4521 78.3829 64.343C78.2803 64.3196 78.1886 64.2625 78.1225 64.1808C78.0565 64.0991 78.0199 63.9977 78.0187 63.8928C77.981 63.7184 77.9287 63.5475 77.8624 63.3818L77.7451 63.3677C77.5888 63.5983 77.4059 63.8211 77.2621 64.0626C76.0913 66.0349 74.8893 67.9855 73.4183 69.7584C72.1678 71.2712 70.6781 72.5269 69.0774 73.6533C68.1958 74.2765 67.3033 74.8809 66.4201 75.4932C66.2231 75.6272 66.2075 75.8048 66.3966 75.9606C66.4636 76.0066 66.5382 76.0403 66.617 76.0603C67.136 76.2254 67.186 76.3205 67.2423 76.8689C67.3008 77.1842 67.3759 77.4962 67.4674 77.8036C67.4757 77.9077 67.4704 78.0125 67.4518 78.1152C67.3439 78.1059 67.2079 78.1339 67.1313 78.0778C66.7202 77.7818 66.3153 77.4749 65.9308 77.1431C65.8951 77.0922 65.8718 77.0338 65.8629 76.9724C65.8539 76.9109 65.8595 76.8483 65.8792 76.7894C66.0152 76.4093 66.0043 76.2893 65.7417 76.0105C64.5709 76.4778 63.4219 76.9764 62.2464 77.4001C60.9959 77.8519 59.7141 78.2336 58.4464 78.6465C58.3746 78.6596 58.3048 78.6816 58.2385 78.7119C58.0822 78.8085 57.9415 78.9191 57.7946 79.0235C57.8903 79.1576 57.9992 79.2818 58.1197 79.3943C58.2551 79.4947 58.3593 79.6312 58.4201 79.788C58.481 79.9449 58.4961 80.1157 58.4636 80.2808C58.4198 80.6266 58.4167 80.9787 58.3792 81.3246C58.3534 81.4297 58.3135 81.5309 58.2604 81.6253C58.1572 81.5707 58.0212 81.5396 57.9571 81.4555C57.6617 81.066 57.3897 80.6594 57.1021 80.2636C57.0577 80.2118 57.0352 80.1449 57.0393 80.077C57.0434 80.009 57.0737 79.9452 57.124 79.8991C57.2163 79.801 57.288 79.6855 57.335 79.5594C57.4382 79.1918 57.2506 78.9892 56.8942 79.0687C55.4326 79.3943 53.9727 79.7324 52.4689 79.8118C51.9421 79.8383 51.4153 79.8586 50.8901 79.8679C50.3962 79.8788 50.3039 79.9645 50.2211 80.4537C50.0022 81.7561 49.7771 83.0575 49.5458 84.3579C49.5145 84.5293 49.4973 84.7209 49.2425 84.7443C48.8893 84.777 48.8174 84.7443 48.747 84.3454C48.5053 82.9952 48.2677 81.6409 48.0342 80.2823C47.978 79.963 47.9076 79.8679 47.6044 79.8742C45.4159 79.9147 43.2822 79.5501 41.1735 79.0064C41.147 79.0064 41.1204 79.0064 41.0954 78.9939C40.8718 79.3741 40.8828 79.5641 41.147 79.8773C41.2501 79.9988 41.3033 80.1047 41.1892 80.259C40.8984 80.6516 40.628 81.0597 40.3341 81.4508C40.2286 81.5479 40.1103 81.6302 39.9824 81.6954C39.9324 81.1766 39.8917 80.7404 39.848 80.3041C39.8445 80.2408 39.8361 80.1777 39.823 80.1156C39.7511 79.8539 39.7698 79.6373 40.0715 79.5252C40.1566 79.4906 40.2276 79.4286 40.2732 79.3491C40.3497 79.2167 40.4607 79.0562 40.4388 78.93C40.4217 78.8381 40.2184 78.7587 40.084 78.715C38.6553 78.2477 37.2125 77.813 35.7947 77.3129C34.813 76.9655 33.8658 76.5199 32.8997 76.1289C32.7747 76.079 32.5699 76.0182 32.4996 76.0774C32.4137 76.1467 32.3535 76.2426 32.3286 76.3499C32.3037 76.4571 32.3155 76.5696 32.362 76.6695C32.3808 76.7115 32.4011 76.7505 32.423 76.791C32.5183 76.9701 32.4527 77.0917 32.2995 77.2054C31.9368 77.4765 31.5836 77.7585 31.224 78.0342C31.1736 78.0853 31.1113 78.1233 31.0427 78.1448C31.0041 78.1505 30.9647 78.1484 30.9269 78.1388C30.889 78.1292 30.8535 78.1122 30.8223 78.0888C30.8016 78.0571 30.7874 78.0216 30.7807 77.9844C30.774 77.9472 30.7748 77.9091 30.7832 77.8722C30.8692 77.4889 30.9786 77.1104 31.0568 76.7256C31.0825 76.5499 31.1595 76.3856 31.2782 76.2532C31.3968 76.1208 31.552 76.0261 31.7242 75.9809C31.8379 75.9252 31.9432 75.8539 32.0369 75.769C31.9749 75.6535 31.8953 75.5484 31.8008 75.4574C30.7864 74.7392 29.7594 74.0381 28.748 73.3168C26.4266 71.6641 24.4601 69.5654 22.9643 67.1442L20.8775 63.804C20.8009 63.6809 20.7212 63.5625 20.6321 63.4285C20.3664 63.5095 20.2007 63.6482 20.221 63.9473C20.235 64.1888 20.0991 64.3087 19.8708 64.3539C19.4613 64.4334 19.0549 64.5253 18.6469 64.6079C18.4546 64.6468 18.2623 64.6764 18.1779 64.5004C18.5281 64.0205 18.8501 63.5656 19.1955 63.1247C19.2932 63.0465 19.4159 63.0061 19.541 63.011C19.7895 62.9938 20.0412 63.011 20.3398 63.011C20.0615 62.4797 19.8052 61.9952 19.5582 61.5076C18.5676 59.615 17.7039 57.6592 16.9727 55.6528C16.9352 55.55 16.8477 55.4098 16.7633 55.3942C16.5819 55.3584 16.4757 55.4923 16.4163 55.6668C16.3084 55.9784 16.1927 56.0267 15.8832 55.9784C15.4721 55.9192 15.0563 55.8896 14.6452 55.8226C14.5815 55.8123 14.5206 55.7887 14.4667 55.7532C14.4129 55.7178 14.3671 55.6714 14.3326 55.617C14.2638 55.4285 14.4654 55.4129 14.5889 55.3443C14.8531 55.2113 15.1047 55.0548 15.3408 54.877C15.7769 54.5233 15.8598 54.4984 16.3553 54.7367C16.4684 54.7782 16.5844 54.8115 16.7023 54.8365C16.676 54.5953 16.6374 54.3555 16.5866 54.1182C16.1235 52.2733 15.8382 50.3884 15.7347 48.4894C15.7347 48.4177 15.7222 48.3445 15.7144 48.2728C15.6659 47.8055 15.5315 47.6575 15.0673 47.5749C14.3967 47.4549 13.7229 47.3521 13.0539 47.2337C12.3567 47.1091 11.6606 46.9798 10.9655 46.8458C10.8092 46.8146 10.6123 46.785 10.6263 46.5653C10.6404 46.3457 10.8217 46.3348 10.9874 46.3052L15.1376 45.5449C15.5487 45.4701 15.5909 45.4374 15.5784 45.0167C15.5273 42.7421 15.7983 40.4716 16.3834 38.2724C16.4788 37.9016 16.274 37.7006 15.8926 37.805C15.7956 37.8288 15.7066 37.8777 15.6347 37.9468C15.4549 38.1431 15.322 38.1338 15.1063 37.9639C14.7546 37.6788 14.367 37.4374 13.9918 37.185C13.8496 37.0884 13.7589 36.984 13.8355 36.8438C14.4217 36.7737 14.9766 36.6989 15.5346 36.6506C15.6549 36.6612 15.7666 36.7169 15.8473 36.8064C15.9958 36.9466 16.1036 37.1351 16.2631 37.2629C16.2983 37.3014 16.3441 37.3289 16.3947 37.342C16.4453 37.3552 16.4987 37.3534 16.5484 37.3369C16.598 37.3204 16.6418 37.2899 16.6744 37.2491C16.707 37.2083 16.727 37.159 16.732 37.1071C17.3906 34.6234 18.2608 32.2003 19.3331 29.8642C19.3878 29.7411 19.4441 29.618 19.4988 29.4965C19.2503 29.2099 19.0455 29.1584 18.7172 29.3142C18.6808 29.3364 18.6402 29.3509 18.598 29.3569C18.5558 29.3628 18.5127 29.3601 18.4716 29.3489C18.4304 29.3376 18.392 29.3181 18.3587 29.2915C18.3254 29.2649 18.298 29.2319 18.278 29.1943C18.0232 28.8437 17.7465 28.5072 17.4792 28.166C17.4401 28.1162 17.3745 28.071 17.3651 28.0102C17.3495 27.9183 17.337 27.7937 17.387 27.7376C17.437 27.6815 17.5652 27.6784 17.6496 27.6955C17.9904 27.7688 18.3249 27.8809 18.6688 27.9355C19.1377 28.0087 19.3597 28.1754 19.4988 28.5991C19.5531 28.7153 19.6219 28.8242 19.7036 28.9232C19.8278 28.865 19.9419 28.7871 20.0412 28.6926C20.5727 27.9573 21.1042 27.2219 21.6044 26.4694C23.4536 23.6986 25.8967 21.3712 28.7574 19.655C29.75 19.0536 30.7379 18.4429 31.7274 17.8338C31.8587 17.7543 31.9853 17.6671 32.1244 17.5783C32.0525 17.3181 31.9212 17.1607 31.6289 17.181C31.3757 17.1981 31.2475 17.0532 31.1975 16.818C31.1099 16.4036 31.0068 15.9907 30.9395 15.5716C30.9379 15.4136 30.9595 15.2561 31.0036 15.1042C31.5335 15.4968 32.0103 15.8412 32.473 16.1948C32.5041 16.233 32.5268 16.2773 32.5394 16.3248C32.5521 16.3724 32.5545 16.422 32.5465 16.4706C32.5121 16.7307 32.4621 16.9878 32.6418 17.2417L33.8283 16.6186C35.8053 15.5839 37.8504 14.6839 39.9496 13.9249C40.0318 13.8742 40.107 13.8129 40.1731 13.7426C40.0824 13.6351 40.0168 13.4809 39.8964 13.431C39.601 13.2908 39.526 13.1864 39.5697 12.8655C39.6229 12.4635 39.6541 12.0569 39.726 11.6565C39.7718 11.5299 39.8378 11.4116 39.9214 11.306C40.0206 11.3931 40.1126 11.4879 40.1966 11.5895C40.3329 11.8287 40.4816 12.0606 40.6421 12.2844C40.9547 12.6333 41.111 12.973 40.7984 13.3999C40.7605 13.4851 40.7352 13.5753 40.7233 13.6678C40.84 13.6688 40.9566 13.6605 41.0719 13.6429C43.1618 13.1279 45.2944 12.804 47.4434 12.6754C47.8967 12.6427 48.0561 12.504 48.1405 12.0335C48.3328 10.9664 48.5204 9.89604 48.7142 8.82885C48.747 8.64657 48.7486 8.4456 49.0143 8.40821C49.327 8.36614 49.4317 8.40821 49.4833 8.7198C49.6974 9.87579 49.9116 11.0318 50.1085 12.1909C50.1554 12.4713 50.2774 12.6069 50.5572 12.6365C51.642 12.7486 52.7299 12.8328 53.807 12.9948C54.9184 13.1615 56.0173 13.4076 57.1224 13.618C57.2412 13.646 57.3538 13.6569 57.4601 13.6725ZM64.735 18.6501C62.4509 17.349 60.0569 16.2495 57.5804 15.3644C57.4241 16.187 57.2678 16.9769 57.1115 17.7637C57.0073 18.283 56.889 18.8023 56.7566 19.3216C56.7194 19.4188 56.6484 19.4996 56.5566 19.5491C56.5175 19.5709 56.3846 19.5086 56.3596 19.4556C56.3272 19.3629 56.3212 19.2632 56.3424 19.1674C56.4784 18.4009 56.6222 17.6359 56.7645 16.871C56.8676 16.3132 56.9708 15.757 57.0771 15.179C54.9124 14.6137 52.7 14.2486 50.4681 14.0885C50.4657 14.118 50.4657 14.1477 50.4681 14.1773C50.7807 16.0156 51.0897 17.8535 51.395 19.6908C51.4045 19.7911 51.4504 19.8844 51.5241 19.9533C51.5978 20.0221 51.6942 20.0618 51.7952 20.0647C52.2454 20.1224 52.6971 20.1769 53.1442 20.2517C55.6452 20.6692 58.0103 21.4825 60.3347 22.4624C66.0699 24.8819 70.2889 28.864 72.8978 34.5209C74.2577 37.467 75.2128 40.5268 75.6005 43.7548C75.6552 44.2113 75.7881 44.3235 76.2336 44.3967C77.3153 44.5743 78.3985 44.7597 79.4802 44.9388C80.0571 45.0339 80.6354 45.1242 81.2341 45.2193C81.3467 42.82 80.959 40.5268 80.2853 38.2553C80.1415 38.2927 80.0258 38.3191 79.9148 38.3534C78.8284 38.6775 77.742 39.0046 76.6556 39.3271C76.4993 39.3739 76.3195 39.43 76.2523 39.2025C76.1851 38.975 76.3539 38.9439 76.5056 38.8909C77.5435 38.5606 78.5799 38.2288 79.6178 37.9032C80.1118 37.7474 80.1727 37.6726 80.0023 37.1834C79.4427 35.5803 78.8816 33.9756 78.2829 32.3834C78.0124 31.6589 77.6576 30.9641 77.345 30.235L77.0589 30.4251L74.2906 32.2588C74.2233 32.3185 74.1422 32.3608 74.0545 32.3818C74.0049 32.385 73.9551 32.378 73.9082 32.3611C73.8614 32.3442 73.8186 32.3178 73.7825 32.2837C73.7466 32.2385 73.7935 32.1014 73.8373 32.0266C73.881 31.9518 73.9639 31.9269 74.0295 31.8802C74.9341 31.257 75.8381 30.6338 76.7416 30.0106C76.8213 29.9561 76.8979 29.8985 76.9729 29.8408C75.8287 27.3995 74.017 25.5175 72.1631 23.6605C71.9005 23.8988 71.6707 24.1185 71.43 24.3242C71.3703 24.3633 71.2989 24.381 71.2278 24.3741C71.1566 24.3672 71.09 24.3362 71.039 24.2862C70.988 24.2363 70.9557 24.1705 70.9475 24.0997C70.9393 24.0289 70.9556 23.9575 70.9939 23.8973C71.0591 23.8219 71.1325 23.754 71.2127 23.6947C71.3784 23.5623 71.5472 23.4346 71.7567 23.2725C69.7246 21.5401 67.5127 20.1567 65.2008 18.943L63.325 22.1259C63.2844 22.196 63.25 22.291 63.1859 22.3238C63.0952 22.3689 62.953 22.4141 62.8842 22.3736C62.8154 22.3331 62.7936 22.1695 62.8217 22.0838C62.8911 21.927 62.9737 21.7764 63.0687 21.6336L64.735 18.6501ZM20.9025 30.2693C19.7457 32.6675 18.8123 35.1666 18.1138 37.7349C18.6719 37.9172 19.2081 38.0948 19.7552 38.2693C20.4273 38.4874 21.1026 38.6962 21.7732 38.9221C21.8716 38.97 21.9509 39.0496 21.9983 39.148C22.0186 39.1854 21.9483 39.3193 21.8936 39.338C21.8 39.3681 21.6994 39.3681 21.6059 39.338C20.6915 39.0701 19.7802 38.7943 18.8688 38.5217C18.575 38.4344 18.2795 38.3565 17.9575 38.2677C17.2916 40.5486 16.8915 42.8278 17.0196 45.199C17.1994 45.185 17.3323 45.1866 17.4698 45.1632C19.033 44.9046 20.5961 44.6366 22.1718 44.3842C22.2947 44.3775 22.4105 44.3246 22.4958 44.2361C22.5811 44.1476 22.6296 44.0302 22.6314 43.9075C22.8283 42.1938 23.2816 40.5345 23.7584 38.8816C24.0116 38.006 24.218 37.1071 24.5666 36.2689C25.0527 35.102 25.6295 33.9694 26.211 32.8414C27.202 30.9205 28.4104 29.1553 30.0798 27.7392C30.1752 27.6581 30.208 27.5086 30.283 27.398C30.3371 27.3107 30.4047 27.2323 30.4831 27.1658C30.716 26.9836 30.9911 26.8433 31.1912 26.6315C32.0576 25.7141 33.0591 24.9334 34.1612 24.3164C37.9659 22.1804 41.9676 20.6038 46.3398 20.0834C46.7165 20.0398 46.8087 19.9432 46.8681 19.5771C47.0651 18.4253 47.2599 17.2745 47.4527 16.1247C47.5653 15.4579 47.6716 14.7911 47.7841 14.0994C45.5475 14.2548 43.3305 14.6199 41.1626 15.1899C41.2939 15.8972 41.4174 16.5734 41.5424 17.248C41.6675 17.9226 41.7925 18.5816 41.9082 19.2499C41.9489 19.4789 41.805 19.6254 41.6315 19.5335C41.5452 19.4733 41.4853 19.3824 41.4643 19.2795C41.2736 18.3946 41.0954 17.5082 40.9109 16.6217C40.8265 16.2104 40.7343 15.8006 40.6405 15.3613C38.1394 16.2961 35.7619 17.3352 33.5062 18.6595C33.5641 18.7623 33.6063 18.8418 33.6501 18.9196C34.2128 19.923 34.7755 20.9258 35.3383 21.928C35.3885 21.9922 35.4238 22.0667 35.4414 22.1461C35.447 22.1911 35.4433 22.2367 35.4304 22.2802C35.4175 22.3236 35.3957 22.3639 35.3664 22.3985C35.3243 22.4138 35.279 22.4183 35.2348 22.4115C35.1905 22.4047 35.1487 22.3868 35.1132 22.3596C34.9976 22.2442 34.8982 22.1137 34.8177 21.9717C34.3128 21.1039 33.8142 20.2314 33.3109 19.3605C33.2571 19.2667 33.1971 19.1767 33.1311 19.091C33.1162 19.0645 33.0955 19.0417 33.0706 19.0243C33.0456 19.0069 33.017 18.9954 32.9869 18.9906C32.9568 18.9858 32.926 18.9878 32.8968 18.9966C32.8677 19.0054 32.8409 19.0206 32.8185 19.0412C30.6863 20.2673 28.5792 21.5339 26.6487 23.0685C26.5815 23.1214 26.5221 23.1822 26.458 23.2414C26.7175 23.4564 26.9644 23.6418 27.1895 23.8521C27.4146 24.0624 27.3584 24.3382 27.1114 24.3896C26.9717 24.3987 26.8337 24.3547 26.7253 24.2665C26.4986 24.092 26.2985 23.8833 26.075 23.6776C24.1992 25.5471 22.3813 27.4338 21.262 29.8673L23.6068 31.4845C23.86 31.6605 24.1226 31.8241 24.3618 32.0173C24.429 32.0718 24.4259 32.212 24.4556 32.3117C24.3539 32.3458 24.2492 32.3703 24.1429 32.3849C24.0882 32.3849 24.0288 32.3335 23.9772 32.2977C23.1957 31.7836 22.4141 31.2648 21.6325 30.7507C21.4152 30.5933 21.1776 30.4453 20.9025 30.2693ZM76.5618 62.0341C76.6478 61.8877 76.7275 61.7568 76.8026 61.6229C77.9485 59.577 78.9346 57.4461 79.7522 55.2493C79.8632 54.958 79.832 54.891 79.5271 54.8271C79.1176 54.743 78.7065 54.6713 78.2969 54.5872C77.5044 54.4314 76.7119 54.2756 75.9209 54.1198C75.7646 54.0886 75.6396 54.017 75.6755 53.8285C75.7115 53.64 75.8522 53.6353 76.0116 53.6649C77.2418 53.8955 78.4751 54.1182 79.7038 54.3582C79.9539 54.4065 80.0852 54.3769 80.1383 54.098C80.3994 52.7036 80.687 51.3139 80.9402 49.918C81.0356 49.3946 81.0684 48.8571 81.1137 48.3258C81.1372 48.036 81.0606 47.9893 80.7839 48.0547C80.5729 48.1046 80.3587 48.1482 80.1446 48.1825C78.8456 48.3897 77.5451 48.5922 76.2461 48.8057C75.9022 48.8602 75.8068 48.9615 75.7521 49.3182C75.6505 49.9803 75.5958 50.6518 75.4536 51.3046C74.7388 54.5423 73.5528 57.6584 71.9333 60.5541C71.0361 62.1728 69.9638 63.6606 68.5507 64.8805C68.2899 65.0912 68.0889 65.3662 67.9676 65.6782C67.9058 65.8132 67.8065 65.9278 67.6815 66.0085C67.3814 66.2188 67.0485 66.3855 66.7562 66.6083C66.1231 67.0912 65.5447 67.6568 64.8804 68.0836C62.1135 69.8266 59.0888 71.1252 55.9172 71.9318C54.698 72.2433 53.4584 72.4911 52.2219 72.7388C51.7217 72.8385 51.4638 73.1096 51.3856 73.5972C51.2934 74.1783 51.184 74.7563 51.0855 75.3359C50.9136 76.3501 50.7432 77.3612 50.5681 78.4144C50.742 78.4447 50.9183 78.4598 51.0949 78.4595C52.0875 78.3692 53.0879 78.3037 54.0649 78.1479C54.9215 78.0093 55.7578 77.7554 56.6034 77.5528C56.7973 77.5061 56.8582 77.4204 56.791 77.2054C56.4456 76.1148 56.1204 75.0087 55.7859 73.9103C55.7328 73.7359 55.6843 73.5583 55.9188 73.4881C56.1533 73.418 56.183 73.6206 56.2314 73.7701C56.4534 74.4681 56.6644 75.1723 56.8911 75.8671C57.0474 76.361 57.2303 76.8502 57.3975 77.3347C58.7168 77.1291 63.9175 75.1863 64.8897 74.5398C64.8429 74.465 64.7944 74.384 64.7459 74.317L62.8701 71.5127C62.8248 71.4441 62.756 71.3709 62.7576 71.3008C62.7556 71.201 62.7926 71.1044 62.8608 71.0313C62.9108 70.9939 63.0405 71.0406 63.1218 71.078C63.1718 71.1014 63.1968 71.1762 63.2328 71.2338C63.9331 72.2262 64.6193 73.2233 65.3399 74.2547C67.6503 72.8915 69.7543 71.3164 71.566 69.33C71.3675 69.1617 71.2143 69.0355 71.0673 68.9031C70.7625 68.632 70.7031 68.4357 70.8688 68.269C71.0345 68.1023 71.2283 68.1631 71.5175 68.4498L72.0162 68.939C73.6544 66.931 75.0808 64.7603 76.2727 62.461C75.9225 62.2694 75.6099 62.1058 75.3051 61.9267C74.5141 61.4593 73.7263 60.9919 72.94 60.5245C72.8056 60.445 72.6961 60.3422 72.7978 60.174C72.8994 60.0057 73.0275 60.0665 73.1542 60.1335C73.4027 60.2643 73.6512 60.3968 73.8967 60.5354C74.7814 61.034 75.6646 61.5387 76.5618 62.0341ZM47.6763 78.4471C47.5793 77.8893 47.4871 77.3565 47.398 76.8221C47.1995 75.6443 47.0072 74.465 46.8025 73.2887C46.7431 72.9429 46.5821 72.7886 46.246 72.7528C44.9298 72.6157 43.6621 72.2636 42.3959 71.9068C41.2626 71.5859 40.0996 71.3335 39.0117 70.8957C37.5595 70.3099 36.1636 69.5839 34.7536 68.8984C33.4655 68.2799 32.2963 67.441 31.2991 66.4198C31.2045 66.3037 31.087 66.2083 30.9539 66.1394C30.8208 66.0706 30.6749 66.0297 30.5253 66.0194C30.455 66.0194 30.319 65.8558 30.3346 65.809C30.419 65.552 30.2705 65.4273 30.1095 65.2809C28.9481 64.2324 27.8351 63.1356 27.0191 61.7896C25.7305 59.6678 24.6625 57.4205 23.8319 55.0826C23.1699 53.204 22.7149 51.2591 22.4751 49.2824C22.4328 48.9443 22.3187 48.8337 22.0061 48.7807L18.1686 48.1404C17.8419 48.0859 17.5152 48.0438 17.1681 47.9846C17.1563 48.188 17.1563 48.3919 17.1681 48.5953C17.2901 49.5722 17.3901 50.5552 17.562 51.5258C17.7184 52.4139 17.9591 53.2879 18.1607 54.1743C18.2014 54.3504 18.2952 54.3987 18.4734 54.3644C19.2846 54.2086 20.0975 54.0606 20.9088 53.911C21.3636 53.8285 21.8185 53.7443 22.275 53.6633C22.4125 53.64 22.561 53.6633 22.5532 53.83C22.5532 53.9235 22.4297 54.0123 22.3547 54.098C22.3344 54.1198 22.2859 54.1167 22.25 54.1229C21.2902 54.3161 20.3288 54.5062 19.3691 54.7025C19.0377 54.771 18.711 54.8583 18.353 54.944C19.3237 57.4117 20.3101 59.7969 21.6872 62.0201L22.0639 61.8145L24.8432 60.2565C24.9383 60.1881 25.0439 60.1354 25.1559 60.1007C25.2053 60.095 25.2554 60.0997 25.3029 60.1148C25.3503 60.1298 25.394 60.1548 25.431 60.188C25.4654 60.2254 25.431 60.3812 25.3716 60.4388C25.2708 60.543 25.1542 60.6308 25.0261 60.699C24.1367 61.2116 23.2457 61.7163 22.3563 62.2258C22.2704 62.2736 22.1869 62.3256 22.1061 62.3816C21.9842 62.4704 21.9733 62.567 22.0546 62.7056C23.266 64.7995 24.5181 66.8669 26.0359 68.7629C26.1 68.8439 26.1688 68.9187 26.2423 69.0091C26.4611 68.7613 26.6502 68.5417 26.8456 68.3298C26.9879 68.174 27.1583 68.079 27.3412 68.2535C27.524 68.4279 27.4537 68.5978 27.3099 68.7551C27.1161 68.9686 26.9175 69.1789 26.705 69.4079C28.5807 71.2618 30.4675 73.0753 32.9201 74.1954C33.2702 73.6969 33.6172 73.2015 33.9627 72.7029C34.3081 72.2044 34.6864 71.6622 35.0444 71.145C35.1335 71.0157 35.257 70.9253 35.3773 71.0375C35.4461 71.1029 35.4289 71.2681 35.4321 71.388C35.4321 71.4332 35.3789 71.48 35.3492 71.5251C34.8282 72.3072 34.3035 73.0898 33.7751 73.873C33.6282 74.0942 33.4922 74.3248 33.3421 74.5631C33.4359 74.6114 33.4984 74.641 33.5485 74.6675C35.7844 75.7205 38.105 76.5851 40.4857 77.2521C40.8453 77.3503 40.8484 77.3503 40.9703 76.9779C41.283 76.0317 41.5898 75.0856 41.891 74.1394C41.9349 73.9643 41.9924 73.7929 42.063 73.6268C42.102 73.552 42.2521 73.4617 42.3021 73.485C42.3921 73.5426 42.4556 73.6333 42.4788 73.7374C42.4798 73.8276 42.4595 73.9167 42.4194 73.9976C42.1333 74.9324 41.8426 75.8827 41.5581 76.8253C41.4908 77.0465 41.4424 77.2724 41.3814 77.5092C43.4557 78.0872 45.5238 78.5094 47.6763 78.4471ZM35.1304 58.912C34.9928 58.7671 34.8709 58.6456 34.7552 58.5163C34.6395 58.387 34.527 58.2593 34.4223 58.1222C32.7262 55.8943 31.4882 53.4483 30.9411 50.6892C30.9296 50.5675 30.8753 50.4539 30.7877 50.3683C30.7002 50.2828 30.5851 50.2309 30.4628 50.2218C28.2165 49.837 25.975 49.4429 23.7287 49.0549C23.4812 49.0263 23.2322 49.0128 22.9831 49.0144C23.0847 49.7108 23.1535 50.3511 23.2754 50.9805C23.7875 53.5284 24.6281 55.9996 25.7764 58.3325C26.7425 60.336 27.7742 62.3006 29.3889 63.885C29.8188 64.3072 30.2518 64.7278 30.7004 65.1656L35.1304 58.912ZM75.3332 48.9755C74.8799 49.0425 74.5063 49.0908 74.1358 49.1531C72.0777 49.4989 70.0195 49.8464 67.9613 50.1953C67.4221 50.2873 67.3627 50.3605 67.2564 50.8606C66.6528 53.6887 65.3491 56.3215 63.4641 58.5194C63.35 58.655 63.2234 58.7796 63.1015 58.9089L67.5471 65.1812C67.57 65.1773 67.5921 65.17 67.6128 65.1594C67.6472 65.1313 67.68 65.1002 67.7128 65.0675C69.634 63.1717 71.2172 60.9637 72.3945 58.5381C73.4475 56.3515 74.2447 54.0514 74.7705 51.6832C74.9705 50.8185 75.1331 49.9476 75.3332 48.9755ZM63.5017 33.7076C63.7205 33.9943 63.9409 34.2389 64.1129 34.5147C65.6885 37.0572 67.0047 39.7197 67.8504 42.5973C67.8798 42.7242 67.9495 42.8383 68.0492 42.9225C68.1489 43.0067 68.2733 43.0566 68.4037 43.0646C70.2123 43.3653 72.0193 43.6785 73.8263 43.9838C74.2609 44.0586 74.697 44.1225 75.1706 44.1973C75.0972 43.6878 75.0456 43.2485 74.9705 42.8138C74.6689 41.0253 74.128 39.2975 73.6012 37.5667C72.8759 35.1815 71.6598 33.0346 70.3405 30.9345C69.6058 29.7645 68.621 28.8391 67.6112 27.9027L63.5017 33.7076ZM30.6222 27.9027L30.1533 28.3374C29.4092 29.0432 28.6745 29.7567 28.0946 30.612C26.373 33.1288 25.0688 35.9052 24.232 38.8348C23.7881 40.4084 23.477 42.0193 23.1378 43.6193C23.0175 44.1879 23.0878 44.2144 23.6396 44.1209C25.5373 43.7984 27.4334 43.4713 29.3342 43.1737C29.9438 43.0787 30.308 42.7904 30.4987 42.2C31.1618 40.1006 32.0468 38.0774 33.1389 36.1645C33.6266 35.3186 34.1612 34.4991 34.688 33.6453L30.6222 27.9027ZM46.6086 72.3166C46.5852 72.0985 46.5774 71.9629 46.5555 71.8321C46.2241 69.8239 45.8802 67.8188 45.566 65.809C45.5477 65.5786 45.4584 65.3595 45.3104 65.1816C45.1624 65.0037 44.9629 64.8757 44.7391 64.8151C42.2983 63.9868 39.9616 62.8806 37.7752 61.5185C37.3532 61.2614 37.2781 61.2661 36.8748 61.5668C35.1033 62.8858 33.328 64.2064 31.5492 65.5286C31.4762 65.5943 31.4093 65.6662 31.3491 65.7436C31.396 65.7966 31.4226 65.8324 31.4538 65.8651C32.4262 66.8563 33.5422 67.6966 34.7646 68.3578C37.7523 70.0267 40.9792 71.2288 44.3327 71.9224C45.0658 72.0829 45.8114 72.181 46.6086 72.3166ZM51.5951 72.3322C52.1141 72.2574 52.6065 72.2278 53.077 72.1125C54.6255 71.7313 56.171 71.332 57.7133 70.9144C59.4234 70.447 60.9959 69.6572 62.545 68.8205C63.5501 68.2799 64.5974 67.8032 65.4759 67.057C65.9636 66.6441 66.4295 66.2063 66.9234 65.7639C66.8202 65.6673 66.7671 65.6081 66.703 65.5582C64.8627 64.1841 63.0233 62.8105 61.1851 61.4375C61.1104 61.3709 61.0148 61.3323 60.9147 61.3283C60.8145 61.3243 60.7162 61.3552 60.6364 61.4156C58.5465 62.7228 56.3674 63.8445 54.0149 64.6141C53.091 64.9163 52.6362 65.6003 52.5158 66.5584C52.372 67.716 52.1828 68.8673 52 70.0202C51.8812 70.7773 51.7405 71.5298 51.5951 72.3322V72.3322ZM51.5826 20.6085C51.5998 20.7954 51.6029 20.8951 51.6185 20.9917C51.9749 23.1323 52.336 25.2729 52.6831 27.4167C52.689 27.5289 52.7364 27.635 52.816 27.7147C52.8956 27.7943 53.0019 27.8419 53.1145 27.8482C53.6303 27.9464 54.1462 28.057 54.6511 28.2003C57.0161 28.8671 59.117 30.0449 61.0506 31.5359C61.0757 31.5631 61.1061 31.5848 61.14 31.5996C61.1739 31.6145 61.2106 31.6222 61.2476 31.6222C61.2846 31.6222 61.3213 31.6145 61.3552 31.5996C61.3891 31.5848 61.4195 31.5631 61.4445 31.5359C62.5388 30.7117 63.6408 29.8985 64.7412 29.0821L67.0344 27.3684C66.4788 26.7002 65.8273 26.1174 65.1008 25.6391C61.5446 23.2367 57.6273 21.6959 53.4365 20.8266C52.8472 20.7206 52.2376 20.691 51.5842 20.6131L51.5826 20.6085ZM31.1318 27.3232C31.2881 27.4432 31.3569 27.4977 31.4304 27.5522C33.0686 28.7705 34.7078 29.9878 36.3481 31.204C36.5513 31.3598 36.7623 31.6169 36.9733 31.6122C37.1844 31.6075 37.4126 31.3598 37.6236 31.2056C39.8683 29.5573 42.3037 28.3327 45.0767 27.8607C45.3894 27.8062 45.516 27.6472 45.5644 27.3466C45.838 25.6593 46.1287 23.9736 46.4085 22.2864C46.5008 21.7364 46.582 21.1849 46.6727 20.6022C46.5414 20.6022 46.4445 20.6116 46.3476 20.6209C44.876 20.7802 43.424 21.085 42.0129 21.5308C38.8163 22.4998 35.7603 23.7929 33.0264 25.7201C32.3573 26.189 31.779 26.7732 31.1318 27.3279V27.3232ZM83.7055 46.2802V46.2319C83.5929 46.2086 83.4804 46.1836 83.3663 46.1634C81.2935 45.7957 79.2223 45.4203 77.148 45.0619C74.1176 44.5364 71.0856 44.0171 68.052 43.504C65.1805 43.0148 62.3058 42.5427 59.4375 42.0317C58.5808 41.8759 57.7868 41.904 57.0192 42.3433C55.789 43.0553 54.5479 43.7455 53.324 44.4481C53.4724 45.0448 53.6225 45.6462 53.7773 46.2724L83.7055 46.2802ZM44.4483 46.8598H44.2373C42.3475 46.8598 40.4576 46.8598 38.5693 46.8598C34.8177 46.8769 31.0834 46.9065 27.3396 46.9206C24.2414 46.9309 21.1432 46.9341 18.0451 46.9299C16.9915 46.9299 15.9379 46.919 14.8828 46.9143C14.8136 46.9188 14.7447 46.9271 14.6765 46.9392V47.0171C14.7703 47.0374 14.864 47.0623 14.9594 47.0779C18.2785 47.6388 21.5976 48.1991 24.9167 48.7589C29.5952 49.555 34.2753 50.348 38.9492 51.1691C39.7274 51.3319 40.5385 51.2056 41.2298 50.8138C42.4574 50.1128 43.6819 49.4153 44.9032 48.7215C44.7578 48.1233 44.6078 47.5172 44.4483 46.8598V46.8598ZM49.502 80.6438H49.5896C49.6599 80.3571 49.7459 80.0736 49.799 79.7838C50.0304 78.419 50.243 77.0527 50.479 75.688C50.9917 72.7279 51.5216 69.7553 52.0297 66.7859C52.5815 63.5672 53.1082 60.3453 53.6663 57.1266C53.796 56.3788 53.7382 55.7073 53.2974 55.0592C53.0181 54.6042 52.7675 54.1323 52.5471 53.6462C52.1672 52.9046 51.8014 52.1568 51.4169 51.4183C51.1996 51.0008 51.134 50.9915 50.6869 51.1691C50.453 51.2672 50.214 51.353 49.971 51.4261C49.5317 51.5523 49.4833 51.6037 49.4848 52.0649C49.4848 53.5683 49.5005 55.0717 49.502 56.5751C49.502 64.4822 49.502 72.3882 49.502 80.2932V80.6438ZM48.6564 12.7751L48.5876 12.7627C48.5475 12.8775 48.5141 12.9945 48.4875 13.1132C47.7435 17.4754 47.001 21.8377 46.26 26.1999C45.6858 29.5713 45.1127 32.9422 44.5406 36.3125C44.4245 36.8584 44.5265 37.428 44.8251 37.9001C45.0783 38.2942 45.2862 38.7195 45.5003 39.1464C45.9584 40.0407 46.4039 40.9412 46.865 41.8323C47.0213 42.1439 47.1198 42.1688 47.459 42.0457C47.7575 41.9383 48.0499 41.8105 48.3547 41.7248C48.5938 41.6578 48.6673 41.5488 48.6673 41.2917C48.6579 31.8807 48.6553 22.4692 48.6595 13.0571L48.6564 12.7751ZM49.1253 50.4602C51.0761 50.5693 53.0238 48.6468 53.0488 46.8987C53.0863 44.3048 51.4997 42.4742 49.1941 42.4508C47.1432 42.429 45.1908 44.3873 45.1674 46.489C45.1424 48.8337 46.7384 50.4399 49.1237 50.4664L49.1253 50.4602ZM32.4152 42.6175L40.1278 41.3073L35.9745 35.4619C34.2706 37.6009 33.1858 39.9986 32.4152 42.6175ZM65.8339 42.6175C65.0132 40.0282 64.041 37.5791 62.2136 35.5211C60.8412 37.4576 59.4828 39.3692 58.1072 41.3088L65.8339 42.6175ZM36.4716 57.0207L40.1262 51.8701L32.7325 50.6238C33.4719 53.0697 34.6223 55.2306 36.4716 57.0207ZM61.765 57.0207C63.6017 55.2259 64.7709 53.0869 65.4884 50.6331L58.1135 51.8795C59.3437 53.6088 60.5457 55.307 61.765 57.0207ZM43.9075 36.8079C44.3342 34.3947 44.7547 32.0219 45.1815 29.6165C42.7773 30.2833 40.6608 31.3583 38.8507 33.0704L43.9075 36.8079ZM53.0738 29.7427C53.5006 32.1466 53.9117 34.457 54.3244 36.8064L59.3484 33.0923C59.3006 33.0323 59.2483 32.9761 59.192 32.924C58.5668 32.441 57.9743 31.9207 57.3163 31.4907C56.222 30.7756 55.07 30.1649 53.7898 29.8362C53.5531 29.7912 53.3141 29.76 53.0738 29.7427V29.7427ZM64.685 30.1618L64.6287 30.0901C64.4583 30.2132 64.2864 30.3316 64.1175 30.4578C61.0767 32.7189 58.0332 34.9779 54.9871 37.2348C54.1964 37.8219 53.5642 38.5954 53.1473 39.486C52.7675 40.2775 52.3657 41.0611 51.9671 41.8385C51.6654 42.4212 51.6717 42.4789 52.2422 42.8123C52.272 42.8269 52.3029 42.8394 52.3345 42.8496L64.685 30.1618ZM45.8943 50.3356C41.7811 54.5607 37.6648 58.7895 33.5453 63.0219C33.6747 63.0129 33.7986 62.9663 33.9017 62.8879C36.9895 60.5946 40.0757 58.3008 43.1603 56.0065C44.0072 55.3907 44.6824 54.5697 45.1221 53.6213C45.4769 52.8594 45.8661 52.1116 46.2554 51.3669C46.568 50.7671 46.557 50.697 45.9646 50.3496C45.9418 50.342 45.9182 50.3373 45.8943 50.3356V50.3356ZM53.0004 49.3058C52.8901 49.4233 52.7936 49.5529 52.7128 49.6921C52.6959 49.7411 52.6911 49.7934 52.6987 49.8447C52.7063 49.8959 52.7262 49.9446 52.7565 49.9866C54.9189 52.2217 57.0854 54.4548 59.2561 56.6857L65.2336 62.8287C65.2962 62.8926 65.3634 62.9487 65.429 63.0094C65.4297 62.9214 65.3992 62.8359 65.3431 62.7679C62.7503 59.1442 60.1529 55.5292 57.5507 51.9231C57.3781 51.694 57.1523 51.5101 56.8926 51.3872C55.5733 50.764 54.2134 50.2187 53.0004 49.3058V49.3058ZM32.7872 30.1773L32.7575 30.2069C32.7919 30.2646 32.8231 30.3238 32.8622 30.3783C35.4883 34.0343 38.1165 37.6897 40.7468 41.3447C40.8679 41.514 41.0289 41.6509 41.2157 41.7435C42.5819 42.3667 43.981 42.9307 45.219 43.8654C45.3284 43.7361 45.4269 43.6224 45.5222 43.5055C45.6176 43.3887 45.5973 43.2952 45.4847 43.1799C44.4041 42.0821 43.3276 40.9791 42.2552 39.8709C40.7629 38.3378 39.2706 36.8048 37.7784 35.2718L32.8888 30.2412C32.8576 30.216 32.8235 30.1946 32.7872 30.1773V30.1773ZM43.9044 56.3726L39.0789 59.9496C40.8874 61.2706 42.9165 62.2617 45.072 62.877C44.675 60.6912 44.2936 58.5521 43.9044 56.3726ZM54.3291 56.3726C53.9398 58.5631 53.56 60.7037 53.1739 62.8832C55.3623 62.2242 57.3491 61.3004 59.1623 59.9465L54.3291 56.3726ZM72.3507 70.2726C71.9865 69.7584 71.9458 69.7553 71.5316 70.1168C70.6875 70.8568 69.8715 71.6326 68.9883 72.3228C67.9817 73.1096 66.9187 73.8247 65.873 74.5585C65.6948 74.6831 65.6557 74.789 65.7589 74.976C65.8761 75.1863 66.0137 75.0772 66.1465 75.0149C67.3273 74.4531 68.428 73.7374 69.4198 72.8868C70.4171 72.0361 71.3784 71.1419 72.3507 70.271V70.2726ZM72.4992 23.3286C73.7356 24.4535 74.747 25.717 75.699 27.0319C76.2461 27.7875 76.7932 28.5431 77.3278 29.3065C77.4435 29.4716 77.5435 29.5168 77.728 29.4155C77.9124 29.3142 77.8733 29.1927 77.7983 29.04C77.3198 28.0738 76.7437 27.1587 76.0788 26.309C75.1098 25.0915 74.0657 23.9354 72.9525 22.8472L72.4992 23.3286ZM25.2684 22.8457C23.3504 24.8367 21.4574 26.7686 20.3367 29.2831C20.7149 29.5542 20.7243 29.5526 20.9619 29.2176C21.0057 29.16 21.0463 29.1008 21.0901 29.0432C22.1952 27.5849 23.2863 26.1158 24.4118 24.6809C24.787 24.2011 25.2543 23.7898 25.7045 23.3208L25.2684 22.8457ZM32.3308 75.124C32.6309 74.7921 32.6262 74.7485 32.2901 74.5086C30.233 73.041 28.1071 71.6591 26.3626 69.7693L25.8937 70.1915C27.1458 71.7791 30.5941 74.4229 32.3308 75.124ZM32.7278 18.499C32.709 18.4585 32.684 18.4009 32.6543 18.3432C32.4589 17.9973 32.4136 17.9786 32.0744 18.1874C30.9802 18.8402 29.886 19.4743 28.8215 20.1629C27.757 20.8515 26.7644 21.5775 25.6858 22.3253C25.8999 22.5341 26.0656 22.6977 26.1704 22.802C27.288 22.0231 28.3306 21.2737 29.4045 20.568C30.4784 19.8622 31.6008 19.197 32.7278 18.499V18.499ZM72.4804 22.3206C72.3616 22.2287 72.2553 22.1461 72.1475 22.0651C70.2387 20.6354 68.2343 19.3372 66.1481 18.1796C65.8151 17.9927 65.7557 18.0114 65.576 18.3588C65.5525 18.4071 65.5338 18.4569 65.5041 18.5255L65.9042 18.7592C67.9363 19.9308 69.9184 21.1615 71.752 22.626C72.0334 22.8519 72.11 22.8457 72.3335 22.5606C72.3875 22.4838 72.4366 22.4036 72.4804 22.3206V22.3206ZM72.865 69.7631C72.9572 69.6509 73.0213 69.5839 73.0697 69.5138C74.5194 67.5914 75.8385 65.5746 77.0183 63.4768C77.2402 63.0842 77.2262 63.0437 76.8041 62.8427C76.7744 62.8287 76.7416 62.8178 76.6947 62.7991C75.3848 65.0534 74.0248 67.2626 72.3444 69.3004L72.865 69.7631ZM21.5168 62.7679L21.0119 63.1263C22.3406 65.4538 23.7303 67.6942 25.4044 69.7896L25.8734 69.2801C24.1961 67.2533 22.8549 65.041 21.5168 62.7679V62.7679ZM33.2233 18.2108C33.2678 18.1988 33.3112 18.1831 33.3531 18.164C35.5555 16.8912 37.8862 15.891 40.2528 14.9734C40.4889 14.8815 40.4998 14.7646 40.431 14.5652C40.3623 14.3658 40.2497 14.3471 40.0574 14.4094C38.2008 15.0802 36.3859 15.8605 34.6223 16.7463C34.0424 17.0408 33.475 17.357 32.8732 17.6811C33.0045 17.8914 33.1139 18.0519 33.2233 18.2123V18.2108ZM65.3618 17.7154C65.3118 17.6811 65.2915 17.6639 65.268 17.6499C62.9837 16.3712 60.5963 15.2846 58.1307 14.4016C57.9384 14.3315 57.8634 14.3876 57.8102 14.5574C57.7571 14.7272 57.7039 14.869 57.9446 14.964C59.0201 15.3956 60.1034 15.8147 61.1569 16.2961C62.4559 16.8912 63.7283 17.5424 65.0367 18.1859L65.3618 17.7154ZM21.187 62.3302C20.493 60.9109 19.8083 59.5648 19.1737 58.1969C18.7375 57.2544 18.3593 56.2853 17.9763 55.3194C17.8841 55.0904 17.7715 55.0483 17.5683 55.1325C17.4886 55.1652 17.412 55.2026 17.3229 55.2431C18.2354 57.8032 19.3677 60.2801 20.7071 62.6464L21.187 62.3302ZM80.8996 55.2649C80.4697 54.9923 80.3806 55.0187 80.2196 55.43C79.3592 57.6864 78.3384 59.8788 77.1652 61.9905C76.9855 62.3021 76.9933 62.3364 77.3215 62.5265C77.3887 62.5654 77.4607 62.595 77.5372 62.6324C78.8732 60.2794 79.9993 57.8141 80.9027 55.2649H80.8996ZM19.9349 29.7567C18.7775 32.2324 17.8402 34.8046 17.1337 37.4436C17.5011 37.6555 17.5917 37.6399 17.6683 37.3595C18.3494 34.9316 19.2287 32.5634 20.2976 30.2786C20.4367 29.981 20.4164 29.9327 20.1069 29.8112C20.0568 29.7801 20.0084 29.7692 19.9349 29.7567ZM32.7841 75.5259C33.3343 75.7659 33.8298 75.9933 34.3285 76.2021C36.2736 77.028 38.2728 77.7213 40.3122 78.2773C40.4685 78.3178 40.5842 78.352 40.6483 78.1433C40.7124 77.9345 40.6405 77.8644 40.4576 77.813C40.2403 77.7522 40.0277 77.6681 39.812 77.598C38.7788 77.2615 37.7315 76.9608 36.7154 76.5791C35.4868 76.1117 34.2831 75.5883 33.0373 75.0741L32.7841 75.5259ZM80.6589 37.5931C81.12 37.5137 81.1278 37.495 81.0278 37.1258C80.3533 34.6947 79.484 32.3216 78.4282 30.0293C78.3532 29.8658 78.2938 29.7022 78.0609 29.8315C77.878 29.9343 77.8186 30.0278 77.9233 30.2599C78.7268 32.0297 79.5037 33.8105 80.0633 35.6769C80.2493 36.311 80.4541 36.945 80.6589 37.5931ZM65.4009 75.5322C65.2962 75.0648 65.2133 75.0196 64.8319 75.1956C62.5861 76.2382 60.2586 77.0963 57.8727 77.7616C57.4991 77.8644 57.4632 77.9859 57.7164 78.3256C60.3542 77.6177 62.9253 76.6831 65.4009 75.5322V75.5322ZM80.8152 38.1852C80.8261 38.2366 80.8308 38.2709 80.8402 38.3067C81.4498 40.5034 81.8187 42.7344 81.7781 45.0214C81.7781 45.0759 81.764 45.1492 81.7937 45.1772C81.8603 45.2498 81.9426 45.3063 82.0344 45.3424C82.0579 45.3501 82.1595 45.2286 82.1673 45.1601C82.1926 44.9533 82.2046 44.7452 82.2033 44.5369C82.2065 42.4471 81.9311 40.3662 81.3842 38.3487C81.2841 38.0013 81.1685 37.9686 80.8152 38.1852ZM16.052 45.3361C16.4069 45.3283 16.4803 45.2582 16.4741 44.9388C16.4485 43.3097 16.6137 41.6831 16.9665 40.0921C17.09 39.5281 17.2447 38.9704 17.3854 38.4095C17.4245 38.2537 17.4073 38.1213 17.2291 38.0683C17.0509 38.0154 16.9524 38.1073 16.8993 38.2615C16.8649 38.3643 16.8399 38.4703 16.8133 38.5731C16.3897 40.3258 16.0739 42.0925 16.0583 43.9028C16.0474 44.3811 16.052 44.8578 16.052 45.3361ZM41.1688 78.5047C43.3369 79.0812 45.5129 79.4784 47.7529 79.3709C47.8123 79.0422 47.7607 78.9924 47.448 78.969C46.4992 78.8989 45.5426 78.8693 44.6031 78.7291C43.5917 78.5733 42.596 78.324 41.594 78.1059C41.2017 78.0264 41.1673 78.0529 41.1688 78.5032V78.5047ZM50.4774 79.3554C50.5014 79.3654 50.5267 79.3722 50.5525 79.3756C52.7253 79.4566 54.8402 79.1061 56.9255 78.5328C57.0646 78.4954 57.0927 78.4284 57.0677 78.2991C57.0255 78.0747 56.9317 78.0218 56.6378 78.1012C54.7105 78.62 52.7597 78.9721 50.7557 78.9737C50.4728 78.9737 50.429 79.0453 50.4774 79.3538V79.3554ZM47.881 13.2082C47.78 13.2027 47.6788 13.2027 47.5778 13.2082C46.0271 13.3936 44.4765 13.5681 42.929 13.7722C42.3553 13.8485 41.7879 13.9888 41.2204 14.1134C41.0516 14.1508 40.8922 14.2225 40.9531 14.4686C41.0141 14.7148 41.161 14.6696 41.3455 14.6244C42.7039 14.3409 44.0607 14.048 45.4253 13.8018C46.1022 13.6803 46.7962 13.6554 47.4824 13.5806C47.6841 13.5666 47.9311 13.5853 47.881 13.2082ZM50.3555 13.188C50.3117 13.5712 50.5572 13.565 50.7729 13.5899C51.6826 13.6943 52.6002 13.7582 53.5021 13.914C54.6714 14.1181 55.8297 14.3814 56.9895 14.6447C57.1756 14.6852 57.235 14.6135 57.2819 14.467C57.2975 14.4362 57.3057 14.4022 57.306 14.3677C57.3062 14.3332 57.2985 14.2991 57.2834 14.268C57.2683 14.237 57.2462 14.2098 57.2188 14.1887C57.1914 14.1675 57.1595 14.153 57.1255 14.1461C57.0749 14.126 57.0226 14.1104 56.9692 14.0994C55.5624 13.8657 54.1556 13.6133 52.7487 13.4076C51.9718 13.2939 51.173 13.2596 50.3555 13.188ZM16.213 47.8631C16.213 47.9426 16.213 48.0189 16.213 48.103C16.3439 50.2171 16.6482 52.3169 17.1228 54.3815C17.1697 54.5778 17.2353 54.6791 17.4495 54.6183C17.6637 54.5576 17.6871 54.4719 17.6386 54.26C17.3792 53.1227 17.1119 51.9854 16.9071 50.8325C16.7508 49.971 16.6851 49.0923 16.5945 48.2214C16.5523 47.9161 16.5007 47.8491 16.213 47.8631ZM82.0141 48.0438C82.0016 48.0267 81.9579 47.9285 81.9156 47.9301C81.8335 47.9384 81.7567 47.9747 81.6984 48.0329C81.6609 48.0688 81.6609 48.1498 81.6562 48.2121C81.4953 50.2509 81.142 52.2701 80.601 54.2429C80.5432 54.4626 80.5838 54.5654 80.7933 54.6183C81.0028 54.6713 81.0887 54.5342 81.1247 54.3597C81.1716 54.1385 81.2028 53.9142 81.2529 53.6929C81.6635 51.8342 81.9182 49.9447 82.0141 48.0438ZM34.5457 34.6502C34.0065 35.599 33.4922 36.5057 32.967 37.4342C33.1061 37.4966 33.1936 37.5402 33.2796 37.576C33.7485 37.7583 33.8283 37.7318 34.1002 37.3049C34.3081 36.9778 34.5114 36.6459 34.7255 36.3219C35.2195 35.5756 35.2163 35.4759 34.6427 34.7889C34.6161 34.7608 34.5958 34.7312 34.5457 34.6502ZM57.6805 62.5763L60.4707 61.009C60.2847 60.8657 60.1581 60.7629 60.0283 60.6678C59.6469 60.3874 59.4937 60.3796 59.0904 60.6304C58.6871 60.8813 58.3089 61.1274 57.9228 61.372C57.3975 61.7023 57.3694 61.7786 57.5867 62.3598C57.6148 62.4096 57.6367 62.4579 57.6805 62.5763ZM33.1827 55.3584C33.5066 56.0526 33.9219 56.7006 34.4176 57.2855C34.4416 57.3058 34.4705 57.3196 34.5014 57.3256C34.5323 57.3316 34.5643 57.3296 34.5942 57.3198C34.899 57.1173 35.196 56.9023 35.4946 56.6966L34.1753 54.9736L33.1827 55.3584ZM64.055 54.9673L62.742 56.6966L63.7471 57.418C64.2317 56.72 64.7522 56.1233 65.0351 55.3475L64.055 54.9673ZM38.1066 31.4019L38.8726 32.4005C39.4462 31.9736 39.9668 31.5873 40.4904 31.1931C40.515 31.1725 40.5344 31.1464 40.5469 31.1168C40.5594 31.0873 40.5647 31.0553 40.5623 31.0233C40.4514 30.7195 40.3263 30.4235 40.1794 30.0574L38.1066 31.4019ZM60.0987 31.4221C59.4031 30.9236 58.7903 30.4141 58.0197 30.1275C57.8837 30.4765 57.7586 30.8021 57.6398 31.1074L59.3702 32.413L60.0987 31.4221ZM65.2571 37.4233L64.0284 35.2095L63.2547 35.9012C63.5532 36.3764 63.8299 36.822 64.1129 37.266C64.4255 37.7521 64.5474 37.7848 65.0664 37.5308C65.1148 37.5043 65.1617 37.4779 65.2618 37.4233H65.2571ZM40.6061 62.5857C40.6755 62.3965 40.7278 62.2015 40.7624 62.003C40.7734 61.8768 40.7468 61.6821 40.6624 61.6229C40.1606 61.2723 39.6385 60.9529 39.107 60.6133L38.5552 61.4826L40.6061 62.5857ZM49.6146 38.2693L50.7463 36.4792C51.4831 35.317 52.2188 34.1548 52.9535 32.9925C53.1286 32.7168 53.1301 32.5766 52.9535 32.3304L52.2829 33.421L49.6912 37.657C49.5786 37.8346 49.452 38.0138 49.6146 38.2693ZM48.7079 54.9066L48.6142 54.8754C48.487 55.0707 48.3609 55.2659 48.2359 55.4612C47.2563 57.0067 46.2762 58.5516 45.2956 60.0961C45.1565 60.3142 45.0767 60.5292 45.2424 60.8096C45.3096 60.7224 45.3675 60.6538 45.4128 60.5853C46.4778 58.8497 47.5403 57.1116 48.6001 55.3708C48.6595 55.2224 48.6959 55.0659 48.7079 54.9066V54.9066ZM35.046 42.7655C35.1207 42.831 35.199 42.8924 35.2804 42.9494C37.0656 44.0441 38.8528 45.1372 40.6421 46.2288C40.7604 46.2759 40.8854 46.3043 41.0125 46.313L41.0344 46.2319C40.9933 46.186 40.9478 46.1443 40.8984 46.1073C39.1498 44.9887 37.399 43.8717 35.6462 42.7562C35.5587 42.6925 35.4528 42.659 35.3445 42.6607C35.2362 42.6624 35.1314 42.6992 35.046 42.7655V42.7655ZM57.6133 47.0576L57.5914 47.1574C59.3286 48.2552 61.0652 49.3535 62.8014 50.4524C62.9764 50.563 63.1468 50.5272 63.3219 50.3667C63.2938 50.3511 63.2687 50.3402 63.2469 50.3262C61.518 49.2653 59.7907 48.2012 58.0556 47.148C57.9142 47.0936 57.7647 47.0631 57.6133 47.0576V47.0576ZM66.5123 40.1388L66.0652 40.2837C65.737 40.3897 65.6463 40.494 65.7307 40.8196C65.8355 41.2294 65.9902 41.6267 66.1325 42.0255C66.1473 42.0497 66.1679 42.0699 66.1924 42.0843C66.217 42.0987 66.2447 42.1069 66.2731 42.1081C66.5858 42.0863 66.8984 42.052 67.2423 42.0177C66.9938 41.3774 66.7546 40.7651 66.5123 40.1388ZM31.6914 40.2027L30.9974 42.0286C31.335 42.0551 31.6148 42.0925 31.8931 42.0894C31.9441 42.0812 31.9926 42.0613 32.0346 42.0313C32.0766 42.0013 32.1111 41.962 32.1354 41.9164C32.2336 41.6839 32.3191 41.4462 32.3917 41.2045C32.6481 40.4411 32.5558 40.304 31.6914 40.2027ZM64.3473 54.4875L65.3071 54.8957L66.1215 53.1601C65.8417 53.0962 65.5994 53.0277 65.3509 52.995C65.3027 52.995 65.2553 53.0062 65.2122 53.0275C65.169 53.0489 65.1315 53.0798 65.1023 53.118C64.8475 53.5543 64.6131 54.0014 64.3473 54.4875ZM32.9279 54.9034L33.8845 54.475C33.5797 53.9266 33.3093 53.4421 33.0295 52.9373L32.1213 53.1819L32.9279 54.9034ZM42.4162 29.0665C41.866 29.308 41.3846 29.509 40.9156 29.7364C40.8312 29.7769 40.728 29.9405 40.7499 30.0106C40.8361 30.2529 40.945 30.4866 41.075 30.7086C41.0922 30.7382 41.2314 30.7351 41.2845 30.7086C41.6836 30.5009 42.0786 30.2828 42.4694 30.0543C42.5272 30.0215 42.596 29.9296 42.5882 29.8767C42.5522 29.6196 42.4866 29.3703 42.4194 29.0665H42.4162ZM55.8203 29.0556C55.7531 29.3579 55.689 29.6243 55.6405 29.8938C55.6426 29.9227 55.6515 29.9508 55.6664 29.9757C55.6814 30.0005 55.7019 30.0216 55.7265 30.0371C56.1798 30.2911 56.6394 30.5372 57.1459 30.8161C57.2678 30.5341 57.3882 30.2848 57.4804 30.0262C57.4866 29.9831 57.4818 29.9391 57.4665 29.8982C57.4513 29.8574 57.4259 29.8211 57.3928 29.7925C56.8989 29.5433 56.3877 29.3142 55.8234 29.0556H55.8203ZM44.0263 46.2428L38.1051 43.0833C38.1725 43.1586 38.2511 43.2232 38.338 43.275C39.8261 44.2097 41.3189 45.1445 42.8023 46.0917C42.9792 46.2129 43.1828 46.2899 43.3958 46.3162C43.6088 46.3425 43.8251 46.3174 44.0263 46.2428V46.2428ZM45.3112 58.119L45.3268 58.1424C45.3715 58.1027 45.4123 58.0588 45.4488 58.0115C46.4992 56.3414 47.5476 54.6703 48.5938 52.9981C48.8002 52.6662 48.7595 52.3048 48.6689 51.948L45.3112 58.119ZM58.4011 51.2096C57.521 50.482 53.9789 48.7465 53.4865 48.7963C54.3978 49.5254 57.3288 51.1348 58.4011 51.2096ZM27.1489 44.0726C27.2583 44.1583 27.3302 44.2284 27.4099 44.2767C27.9195 44.6055 28.4307 44.9311 28.9418 45.2582C29.4233 45.5698 29.9032 45.8736 30.3862 46.1759C30.4976 46.2575 30.6291 46.3075 30.7668 46.3204C30.9045 46.3333 31.0431 46.3086 31.1678 46.2491C31.1147 46.1967 31.0583 46.1477 30.9989 46.1026L27.8726 44.0867C27.6554 43.9433 27.4334 43.9558 27.1489 44.0726ZM46.5977 68.6881C47.2995 67.5867 47.9842 66.521 48.6579 65.4492C48.7212 65.3471 48.7546 65.2295 48.7546 65.1095C48.7546 64.9896 48.7212 64.872 48.6579 64.7699C48.6001 64.8431 48.5594 64.8899 48.5266 64.9397C47.8701 65.9596 47.2146 66.9801 46.5602 68.0011C46.4257 68.2083 46.4507 68.4217 46.5977 68.6834V68.6881ZM52.8347 35.1487L52.7737 35.0833C52.7378 35.1519 52.7049 35.222 52.6643 35.2874C51.6998 36.8189 50.7322 38.3472 49.774 39.8818C49.6576 40.0672 49.579 40.2737 49.5428 40.4894C49.5066 40.7052 49.5134 40.9259 49.563 41.139L52.8347 35.1487ZM66.3013 39.6247C66.0215 39.0545 65.7589 38.5232 65.4931 37.9826L64.6646 38.2413L65.4619 39.9706L66.3013 39.6247ZM55.492 63.589C56.0204 63.3335 56.519 63.0967 57.0114 62.8505C57.0384 62.8339 57.061 62.8111 57.0773 62.784C57.0937 62.7569 57.1032 62.7263 57.1052 62.6947C57.0505 62.4548 56.9739 62.218 56.8989 61.9625L55.1607 62.7508C55.2685 63.039 55.3717 63.2976 55.492 63.589ZM32.7247 37.9998C32.4605 38.556 32.2026 39.0903 31.9431 39.6543L32.8013 39.9519L33.5828 38.2241L32.7247 37.9998ZM43.0728 62.7399L41.333 61.9609C41.2642 62.2195 41.1938 62.4595 41.1391 62.7025C41.1375 62.7311 41.1431 62.7596 41.1554 62.7854C41.1677 62.8113 41.1863 62.8337 41.2095 62.8505C41.7175 63.0998 42.2287 63.3397 42.7601 63.5937L43.0728 62.7399ZM53.5209 28.3545C53.4943 28.5508 53.4771 28.6661 53.4631 28.783C53.4396 28.9824 53.4631 29.1818 53.6632 29.2737C54.0977 29.47 54.5432 29.6461 55.0028 29.8393C55.1075 29.4965 55.1982 29.1974 55.3013 28.8562L53.5209 28.3545ZM49.502 28.2595L49.6052 28.2829C49.6474 28.2536 49.6858 28.219 49.7193 28.1801C50.3696 27.1653 51.0178 26.1506 51.6639 25.1358C51.8014 24.9177 51.7733 24.6934 51.6217 24.4426C50.9214 25.5503 50.2289 26.6408 49.5614 27.7314C49.477 27.8716 49.5177 28.0835 49.502 28.2626V28.2595ZM43.24 29.7972C43.2806 29.7935 43.3208 29.7867 43.3604 29.777C43.6871 29.6445 44.0169 29.5183 44.3405 29.3781C44.8188 29.1709 44.9095 28.8671 44.6219 28.3732L42.9164 28.8687C43.0352 29.2145 43.1431 29.509 43.24 29.8003V29.7972ZM71.194 49.0378C70.167 48.3881 69.1775 47.7463 68.1692 47.1371C67.9926 47.0312 67.7316 47.0639 67.5112 47.0327L67.4627 47.1449C67.4977 47.1566 67.5317 47.1712 67.5643 47.1885L70.589 49.1235C70.7953 49.2559 70.9798 49.2076 71.194 49.0378ZM60.1456 50.0255L60.194 49.9694C60.16 49.9597 60.127 49.9467 60.0955 49.9305C58.6887 49.0378 57.2819 48.1373 55.8656 47.2524C55.6962 47.1527 55.5076 47.0895 55.3121 47.067C55.1167 47.0444 54.9186 47.063 54.7308 47.1215L60.1456 50.0255ZM52.1328 27.4572C51.1451 28.7277 50.2927 30.0972 49.5896 31.5437C49.6693 31.5172 49.6912 31.5172 49.699 31.5063C50.5306 30.344 51.3653 29.1834 52.1922 28.0165C52.311 27.8482 52.2845 27.6628 52.1328 27.4572ZM34.3425 46.2335L34.3754 46.1681C34.0143 45.8985 33.6563 45.6212 33.289 45.3579C32.4699 44.7742 31.6487 44.1957 30.8254 43.6224C30.5488 43.4292 30.3878 43.4339 30.1673 43.6224C31.4796 44.613 32.8767 45.4867 34.3425 46.2335ZM48.8033 61.5901L48.7439 61.5185C48.6586 61.5563 48.5808 61.6091 48.5141 61.6743C47.6992 62.7929 46.89 63.9146 46.0865 65.0394C45.9302 65.256 45.9537 65.4834 46.0943 65.7498L48.8033 61.5901ZM68.2255 49.5535C66.9625 48.6094 65.6838 47.7727 64.2645 47.1651C65.3774 48.0064 66.5139 48.8119 67.6534 49.6158C67.841 49.742 68.0082 49.7093 68.2255 49.5535ZM48.6673 57.5473L48.5626 57.5239C47.4996 59.1971 46.4356 60.8698 45.3706 62.542L45.43 62.6044C45.5332 62.5531 45.6268 62.4846 45.7067 62.4018C46.6706 60.9249 47.6288 59.4438 48.5813 57.9586C48.6334 57.8274 48.6625 57.6883 48.6673 57.5473V57.5473ZM42.1255 46.3986C42.3084 46.2226 42.1255 46.1727 42.038 46.1151C40.3111 44.9008 38.5106 43.7941 36.6466 42.8014C36.5862 42.7743 36.5241 42.7514 36.4606 42.7328L36.4419 42.7764L42.1255 46.3986ZM38.4161 46.2335L38.4489 46.1743L38.2473 46.0388C36.7102 45.0593 35.1726 44.0809 33.6344 43.1036C33.5349 43.0555 33.4299 43.0194 33.3218 42.9961C33.3906 43.0865 33.4406 43.208 33.5313 43.2656C34.861 44.1131 36.1949 44.9539 37.5329 45.7879C37.8065 45.9593 38.1191 46.0871 38.4161 46.2335V46.2335ZM44.6687 64.3539C44.6906 64.0096 44.7156 63.7401 44.7188 63.4706C44.719 63.4306 44.7099 63.3911 44.6923 63.3551C44.6746 63.3192 44.6489 63.2878 44.6172 63.2634C44.3888 63.1577 44.1498 63.0762 43.9044 63.0203C43.5698 62.9549 43.1963 63.4597 43.3307 63.7713C43.3541 63.8089 43.3901 63.837 43.4323 63.8507L44.6687 64.3539ZM49.6709 35.5787L52.805 30.6494C52.4111 30.6276 49.8647 34.6408 49.6834 35.5787H49.6709ZM62.0042 50.5132L62.026 50.4555L56.555 46.9766L56.48 47.0514C56.5411 47.1418 56.6142 47.2236 56.6972 47.2945C58.1854 48.2292 59.6766 49.1567 61.171 50.0769C61.4508 50.2405 61.7447 50.3683 62.0167 50.5132H62.0042ZM60.2175 47.0499L60.1862 47.1449C60.2268 47.1761 60.2644 47.2134 60.3066 47.2399C61.8114 48.1996 63.3177 49.1572 64.8257 50.1128C64.8919 50.1354 64.962 50.145 65.032 50.1408C64.9945 50.0738 64.9773 49.9772 64.921 49.9414C63.4871 49.0066 62.05 48.075 60.6098 47.1465C60.4849 47.0941 60.3525 47.0615 60.2175 47.0499V47.0499ZM66.7186 51.2563C66.5264 51.2392 66.406 51.2189 66.2966 51.2205C66.0183 51.2205 65.7307 51.2532 65.6088 51.5476C65.5261 51.7755 65.4658 52.0108 65.429 52.2503C65.4212 52.2908 65.49 52.3765 65.54 52.3952C65.7839 52.4808 66.034 52.551 66.3075 52.6335C66.4435 52.1911 66.5748 51.7486 66.7186 51.2657V51.2563ZM53.2223 33.5285L53.1301 33.5004C53.0801 33.5737 53.027 33.6438 52.9738 33.717C52.433 34.5645 51.8937 35.4125 51.3559 36.2611C50.7588 37.1959 50.1622 38.1364 49.5661 39.0825C49.5052 39.1776 49.3723 39.2913 49.6161 39.3599L50.8198 37.456C51.5941 36.2315 52.3668 35.0064 53.1379 33.7809C53.1771 33.7008 53.2054 33.6159 53.2223 33.5285V33.5285ZM26.9613 46.2444C26.0797 45.6835 25.2418 45.1367 24.3821 44.6195C24.2492 44.5385 24.0366 44.5899 23.86 44.5805L23.8459 44.674C24.6134 45.1834 25.3763 45.6991 26.1516 46.1946C26.272 46.2688 26.4089 46.3122 26.5502 46.3209C26.6914 46.3296 26.8327 46.3033 26.9613 46.2444ZM53.8117 64.2371C54.0836 64.1405 54.3244 64.0673 54.5573 63.9707C54.9481 63.8149 54.959 63.7759 54.8261 63.374C54.7105 63.025 54.5307 62.9253 54.1884 63.0219C53.6491 63.1777 53.5631 63.2821 53.6663 63.6762C53.7116 63.8507 53.7569 64.0314 53.8117 64.2371ZM51.0558 21.1241C50.6338 21.766 50.2086 22.3907 49.8053 23.0311C49.6746 23.2685 49.5698 23.5192 49.4926 23.7789C49.4818 23.8617 49.4871 23.9458 49.5083 24.0266C49.5801 23.9901 49.6452 23.9417 49.7006 23.8833C50.1461 23.2024 50.5775 22.5123 51.0277 21.8346C51.1025 21.7322 51.1451 21.6101 51.1501 21.4836C51.1551 21.3571 51.1223 21.232 51.0558 21.1241V21.1241ZM47.0885 71.9863C47.1729 71.9489 47.1964 71.9458 47.2042 71.9349C47.6653 71.2432 48.1327 70.5545 48.5813 69.855C48.6636 69.7278 48.7146 69.5832 48.7304 69.4327C48.7461 69.2822 48.7261 69.1302 48.672 68.9888C48.139 69.8254 47.62 70.6184 47.1323 71.4285C47.051 71.5625 47.101 71.776 47.0885 71.9863ZM51.1699 22.1695C50.6087 23.1323 50.0523 24.0827 49.502 25.0361C49.4817 25.0688 49.5098 25.1312 49.5223 25.2402C50.0585 24.5641 50.3446 23.7913 50.9495 23.2601L51.0183 23.2975C50.948 23.4673 50.8792 23.6371 50.7791 23.8786C51.4794 23.2242 51.5732 22.774 51.1699 22.1695ZM47.2167 70.0202L47.1292 69.9625C47.2073 69.7584 47.2855 69.5559 47.3871 69.2988C46.7477 69.908 46.6571 70.3894 47.0573 70.9378C47.6117 70.003 48.164 69.0683 48.7142 68.1335C48.7305 68.0806 48.7368 68.0251 48.733 67.9699L48.6642 67.9512L47.2167 70.0202ZM24.826 44.512C25.0824 44.6678 25.3294 44.8142 25.5779 44.9607C26.311 45.3969 27.0426 45.8331 27.7788 46.2631C27.8509 46.2911 27.9268 46.3084 28.0039 46.3145L28.0227 46.2273L25.6436 44.688L25.6811 44.6086L26.4861 44.8469C26.0453 44.2939 25.3872 44.1677 24.826 44.512ZM32.8951 52.3375C32.7763 52.0509 32.6778 51.7907 32.5574 51.5414C32.5341 51.5079 32.5034 51.4802 32.4676 51.4605C32.4318 51.4408 32.3919 51.4295 32.3511 51.4277C32.1182 51.4386 31.8821 51.4791 31.5961 51.5149C31.7149 51.9044 31.8259 52.2674 31.9431 52.6475L32.8951 52.3375ZM48.5735 54.1151L48.5157 54.0684C47.8326 54.824 45.3315 58.8902 45.3018 59.3451L48.5735 54.1151ZM44.2373 44.2191L44.2733 44.1443C42.8977 43.289 41.5659 42.3449 39.9339 41.999L44.2373 44.2191ZM74.5391 48.572L74.5626 48.4614C73.6419 48.075 72.9994 47.162 71.8802 47.1433C72.543 47.6107 73.2151 48.0781 73.9123 48.4878C74.0842 48.5875 74.3328 48.5486 74.5438 48.572H74.5391ZM43.0134 37.1756C43.1134 38.1898 43.0431 39.1854 43.4151 40.1357C43.4651 39.2991 43.4682 38.4656 43.462 37.6305C43.4557 37.3719 43.2994 37.2426 43.0134 37.1756ZM71.9318 48.3289C72.482 48.9147 72.8853 48.9879 73.4949 48.6281C72.5945 48.0984 71.7067 47.5733 70.8141 47.0545C70.786 47.0374 70.7281 47.0701 70.6031 47.0982L72.8697 48.5875L72.8118 48.6966L71.9318 48.3289ZM39.8495 53.2255C40.7984 53.0511 41.7769 53.1679 42.6069 52.7582C41.8644 52.7582 41.0813 52.7582 40.2982 52.7582C40.0387 52.7628 39.8871 52.9217 39.8495 53.2255ZM55.0872 53.4125C55.0872 54.2086 55.0872 55.0032 55.0872 55.7977C55.0872 56.0579 55.2435 56.1747 55.5468 56.1934C55.4233 55.2587 55.5249 54.2974 55.0872 53.4125ZM58.3057 40.0469C57.3319 40.2276 56.344 40.1248 55.4561 40.5828C56.2455 40.5828 57.0318 40.5454 57.818 40.5205C58.1025 40.5065 58.2588 40.3787 58.3057 40.0469ZM35.7337 46.246L32.3917 44.1396C33.264 44.8672 34.1628 45.5511 35.0678 46.2288C35.2601 46.369 35.4836 46.3503 35.7384 46.246H35.7337ZM66.3232 49.2606L66.3685 49.2138C65.4462 48.5283 64.5271 47.8397 63.5986 47.1605C63.5026 47.0969 63.3915 47.0597 63.2766 47.0526C63.1616 47.0455 63.0467 47.0687 62.9436 47.12L66.3232 49.2606ZM49.4801 32.776L49.6177 32.8305L51.631 29.6881C51.5607 29.671 51.5357 29.6881 51.5201 29.7053C50.8948 30.5466 50.257 31.3832 49.6443 32.2369C49.5411 32.3803 49.5333 32.5937 49.4801 32.776ZM72.0474 48.9786V48.8727C71.727 48.6686 71.4081 48.4598 71.0845 48.2588C70.4457 47.8631 69.8033 47.471 69.1572 47.0826C69.1103 47.0545 69.0352 47.0748 68.9727 47.0732C69.0024 47.1278 69.018 47.2041 69.0649 47.229C69.9825 47.8133 70.9016 48.3959 71.827 48.9692C71.8755 49.0066 71.9708 48.977 72.0474 48.977V48.9786ZM46.7993 63.1309L46.8322 63.1668C46.8589 63.1464 46.8835 63.1234 46.9056 63.0982C47.484 62.3556 48.0608 61.6125 48.636 60.8688C48.7063 60.7765 48.7467 60.6651 48.7521 60.5494C48.7574 60.4336 48.7273 60.319 48.6657 60.2207C48.0327 61.2069 47.4152 62.1619 46.7993 63.1309ZM22.8221 44.8002L22.8127 44.8937C23.638 45.319 24.3383 45.9749 25.284 46.2319C25.2668 46.1883 25.2668 46.1665 25.2559 46.1603C24.5916 45.7054 23.9319 45.2442 23.2551 44.8095C23.155 44.7441 22.9784 44.8002 22.8221 44.8002ZM26.4392 44.3328C27.4521 44.9809 28.4229 45.6991 29.528 46.2023C28.6104 45.4115 27.5678 44.7777 26.4423 44.3266L26.4392 44.3328ZM48.6907 70.634C48.0092 71.1746 47.3074 72.449 47.4215 72.9148C47.9889 72.1966 48.5626 71.159 48.6907 70.634ZM52.5846 29.8237L52.4705 29.8081L50.3149 33.2776L50.3946 33.3275C50.6249 32.9754 50.8552 32.6233 51.0855 32.2712C51.567 31.539 52.0515 30.8083 52.5267 30.073C52.5597 29.9936 52.5792 29.9094 52.5846 29.8237V29.8237ZM29.0075 43.6987C28.9778 43.7548 28.9481 43.7906 28.9559 43.8C28.9955 43.8585 29.0434 43.911 29.0981 43.9558L32.6606 46.3285L32.7262 46.2304L29.0075 43.6987ZM48.6517 66.507L48.5563 66.4353C47.8306 67.3305 47.2354 68.3234 46.7884 69.3845L46.8525 69.4235L48.6517 66.507ZM75.5005 48.2962C74.7986 47.8802 74.1874 47.2991 73.3589 47.12C73.9779 47.6824 74.6063 48.2292 75.5005 48.2962ZM45.5738 63.2229C45.7426 63.4129 45.7973 63.2665 45.8614 63.1621C46.4752 62.1713 47.089 61.1799 47.7028 60.188C47.7375 60.1248 47.7688 60.0598 47.7966 59.9932L47.7341 59.9605C47.0166 61.0417 46.3007 62.1245 45.5738 63.2229ZM48.7111 63.3195L48.6235 63.2571L46.1991 66.8108L46.3273 66.8996C47.1213 65.7047 47.9264 64.5191 48.7111 63.3195ZM58.0994 49.5831C57.4741 49.0238 54.7292 47.6543 54.4776 47.7774L58.0994 49.5831ZM69.3463 49.4506C69.3791 49.3883 69.4073 49.3509 69.401 49.3431C69.3559 49.2874 69.3033 49.2381 69.2447 49.1967C68.162 48.4697 67.0782 47.7483 65.9933 47.0327L65.9261 47.134L69.3463 49.4506ZM49.5802 29.7738L49.6552 29.8128L52.0265 26.3386L51.9562 26.2622C51.8943 26.3024 51.8381 26.3506 51.7889 26.4056C51.0751 27.4743 50.3628 28.5446 49.6521 29.6165C49.624 29.667 49.6 29.7196 49.5802 29.7738ZM48.2796 51.4916C48.028 51.5492 46.4758 54.6246 46.4976 54.9782C47.0823 53.8363 47.6653 52.6927 48.2796 51.4916ZM51.7811 38.2615L51.7217 38.2319C51.063 39.3364 50.4746 40.4812 49.96 41.6594L50.0835 41.7217L51.7811 38.2615ZM35.3476 45.0105L35.3992 44.9279C34.5051 44.3359 33.6125 43.7423 32.7137 43.1566C32.6715 43.1285 32.5871 43.1644 32.523 43.1706L32.5058 43.2734L35.3476 45.0105ZM43.981 45.5309L44.0122 45.4685L39.9183 43.4354L39.8886 43.4931C41.2029 44.2675 42.5704 44.9484 43.981 45.5309V45.5309ZM49.5755 22.4733C50.2336 21.6663 50.9057 20.8094 50.826 20.2844C50.3633 20.9777 49.7959 21.5962 49.5755 22.4686V22.4733ZM54.6136 55.5516C54.8121 55.0608 54.6136 52.7473 54.3697 52.5089C54.4525 53.5496 54.5323 54.5482 54.6136 55.5469V55.5516ZM40.8969 51.7891L40.9078 51.8577L43.6621 51.4448C42.7132 51.3825 41.78 51.423 40.8969 51.7844V51.7891ZM49.6865 26.566L49.7631 26.6143L51.3169 24.1481L51.234 24.0951C50.6635 24.8803 50.0992 25.6749 49.6865 26.5614V26.566ZM53.9289 52.5525C53.8283 53.3733 53.8605 54.2049 54.0242 55.0156C54.0352 55.0608 54.0977 55.0966 54.1352 55.1371C54.1602 55.0888 54.2103 55.039 54.2056 54.9938C54.118 54.179 54.0242 53.3658 53.9289 52.5525ZM57.335 41.4179L54.9027 41.7715C55.7296 41.9086 57.0896 41.7295 57.3366 41.4179H57.335ZM44.1529 40.7589C44.1732 39.7898 43.9638 37.9686 43.7981 37.8502C43.9091 38.8411 43.8371 39.821 44.1545 40.7589H44.1529ZM44.3546 38.397C44.4061 38.8644 44.4515 39.2648 44.4952 39.6652C44.539 40.0656 44.5796 40.4442 44.6234 40.8399C44.7438 39.5842 44.6484 38.6494 44.3561 38.397H44.3546ZM40.7452 52.2456C41.6659 52.364 43.0446 52.177 43.3713 51.9231L40.7452 52.2456ZM57.3772 41.0393V40.9739C56.5126 40.9319 55.6482 41.0611 54.834 41.354L57.3772 41.0393ZM49.6021 18.5676C49.9147 18.1376 50.3336 17.7714 50.3539 17.1903C49.9819 17.5845 49.638 17.9927 49.6021 18.5676ZM48.636 74.5912C48.3156 75.0165 47.8545 75.3701 47.8795 75.9793C48.1999 75.5602 48.5641 75.1536 48.636 74.5912V74.5912ZM63.4016 48.3648L63.3422 48.4567L65.5447 49.8947C65.5666 49.8588 65.59 49.8246 65.6119 49.7903L63.4016 48.3648ZM19.8161 45.3439C20.3398 45.7209 20.7712 46.1026 21.3621 46.2008C20.9197 45.8409 20.5008 45.4374 19.8161 45.3439ZM60.4035 35.3419L60.4363 35.4603C60.924 35.3715 61.4727 35.4993 61.8666 35.0755L61.8447 34.9976L60.4035 35.3419ZM38.0691 33.5316C38.2113 34.1143 38.2395 34.6455 38.463 35.13C38.3974 34.6081 38.5818 34.0239 38.0691 33.5316ZM36.3121 58.2842L37.7502 57.9305L37.7205 57.8277C37.2203 57.8838 36.6763 57.7872 36.3121 58.2842ZM77.2496 47.1153C77.7842 47.6497 78.1734 47.8475 78.5127 47.7634C78.1266 47.4985 77.7936 47.1714 77.2496 47.1153ZM37.6517 34.242C37.6205 33.8027 37.6517 33.3462 37.3297 32.9957C37.3485 33.4288 37.3141 33.8837 37.6517 34.242ZM61.2554 34.5723C61.6806 34.538 62.1214 34.5505 62.4559 34.2233C62.037 34.2545 61.5962 34.2296 61.2617 34.5723H61.2554ZM60.219 58.5646L60.1174 58.5786C60.1252 59.0149 60.0158 59.4776 60.4473 59.825C60.3785 59.4043 60.3019 58.9837 60.2253 58.5646H60.219ZM35.6149 59.099C36.1073 59.004 36.5669 59.0616 36.9468 58.6628C36.47 58.7485 36.0214 58.7157 35.6212 59.099H35.6149ZM14.9125 37.2239C15.1704 37.6383 15.3814 37.6633 15.6034 37.3236C15.4221 37.0198 15.1751 37.1507 14.9125 37.2239ZM61.2617 60.4996C61.2382 60.0244 61.2617 59.6193 60.9365 59.3046C60.9631 59.6972 60.935 60.1054 61.2617 60.4996V60.4996ZM83.3459 37.2862L83.3209 37.2083C83.1879 37.1639 83.0485 37.1412 82.9083 37.1413C82.8098 37.1569 82.7269 37.2769 82.6363 37.3501C82.7457 37.4155 82.8676 37.5495 82.9598 37.5324C83.099 37.5106 83.2178 37.3782 83.3459 37.2909V37.2862ZM22.6517 45.9017C22.2453 45.414 21.5762 45.0121 21.3027 45.0869L22.6517 45.9017ZM40.4514 79.8227C40.1981 80.0331 40.1794 80.1951 40.3654 80.5207C40.7077 80.2699 40.7327 80.1078 40.4514 79.8227ZM49.9006 19.8108C50.404 19.4182 50.7275 18.876 50.6181 18.6299L49.9006 19.8108ZM57.9103 80.5456C58.0556 80.0891 58.0353 79.9863 57.7821 79.8523C57.5132 80.1452 57.5242 80.2216 57.9103 80.5456ZM16.6539 45.8643C17.0181 46.0917 17.2947 46.3161 17.7027 46.2818C17.5753 46.1322 17.4132 46.016 17.2303 45.9432C17.0475 45.8704 16.8496 45.8433 16.6539 45.8643V45.8643ZM52.7893 51.356C52.6111 52.0384 52.644 52.7114 52.8753 52.8454C52.8472 52.3593 52.8206 51.8919 52.7893 51.356ZM57.0099 55.7697H56.927C56.9823 56.2682 57.0344 56.7678 57.0833 57.2684L57.1881 57.2575L57.0099 55.7697ZM18.4702 45.5729L18.4202 45.6789L19.4066 46.2366L19.4597 46.1385L18.4702 45.5729ZM52.2235 50.5583H52.1422V51.5274H52.2235V50.5583ZM48.2734 73.3978C47.8638 73.7421 47.6903 74.0443 47.7091 74.3325L48.2734 73.3978ZM53.3927 52.9576L53.3818 52.9467V54.0949H53.4646L53.3927 52.9576ZM41.4768 36.2876H41.3924C41.4361 36.6522 41.481 37.0157 41.5268 37.3782L41.5909 37.3704C41.5534 37.0136 41.5143 36.6521 41.4768 36.2891V36.2876Z" fill="white"/>
<path d="M51.6654 4.3747C51.6654 3.03176 51.6654 1.78229 51.6654 0.532816C51.6654 0.470499 51.5623 0.377022 51.4904 0.356769C51.3737 0.35056 51.2569 0.35056 51.1402 0.356769C50.9636 0.334958 50.7885 0.288219 50.6134 0.253945V0.133983C50.7488 0.0813302 50.89 0.0447268 51.0339 0.0249271C51.617 0 52.2094 0.00778971 52.7972 0C52.941 0 53.0848 0 53.0785 0.197859C53.0723 0.395717 52.9222 0.37858 52.78 0.37858H52.2094V0.705748C52.2032 2.4091 52.1969 4.11193 52.1907 5.81424C52.2004 5.97669 52.1921 6.13972 52.1657 6.30032C52.1391 6.41716 52.0672 6.58231 51.9781 6.61191C51.9154 6.61556 51.8528 6.60498 51.7948 6.58096C51.7369 6.55694 51.6851 6.52011 51.6436 6.47325C50.5869 5.26584 49.5521 4.05065 48.4891 2.83857C48.1859 2.49115 47.8639 2.1671 47.4887 1.77917C47.4715 1.93496 47.4574 1.99261 47.4574 2.05804C47.4574 3.3044 47.4574 4.53984 47.4574 5.78152C47.4574 6.00431 47.5387 6.06819 47.7372 6.0713C47.9363 6.065 48.1356 6.07594 48.3328 6.10402C48.4125 6.1196 48.4735 6.23644 48.5423 6.30655C48.4641 6.37977 48.3859 6.5122 48.3094 6.51376C47.6111 6.52934 46.9114 6.52934 46.21 6.51376C46.1334 6.51376 46.0537 6.37822 45.9834 6.30655C46.0615 6.23644 46.1303 6.12739 46.221 6.10713C46.4398 6.0696 46.6606 6.04412 46.8822 6.03079C46.8822 5.36555 46.8822 4.71589 46.8822 4.06623C46.8822 3.45084 46.8556 2.83234 46.8963 2.22007C46.9572 1.2853 46.8072 0.986177 45.9849 0.539048C45.8218 0.425623 45.6737 0.292144 45.5441 0.141773L45.5957 0.0202532C46.0803 0.0202532 46.5664 0.0358327 47.051 0.0202532C47.5747 0 47.9326 0.205648 48.2765 0.613829C49.2926 1.81968 50.3618 2.9819 51.4122 4.15971C51.4927 4.23589 51.5772 4.30766 51.6654 4.3747V4.3747Z" fill="white"/>
<path d="M4.01888 45.481C3.89851 45.8939 3.7844 46.3083 3.65779 46.7196C3.44051 47.4191 3.22167 48.1217 2.99032 48.8119C2.96531 48.8867 2.84651 48.991 2.7918 48.9801C2.74315 48.9656 2.69812 48.941 2.65961 48.908C2.6211 48.875 2.58998 48.8343 2.56827 48.7885C2.23531 47.9971 1.91487 47.1994 1.58973 46.4049C1.29898 45.6924 1.00772 44.9809 0.715926 44.2705C0.678815 44.1489 0.612404 44.0381 0.522489 43.948C0.432573 43.8578 0.321885 43.791 0.200084 43.7532C0.117237 43.7299 0.0656526 43.6068 0 43.5289C0.0875368 43.4666 0.171947 43.3575 0.26261 43.3529C0.687789 43.3357 1.11609 43.3435 1.54284 43.3529C1.8242 43.3529 2.10714 43.3529 2.38694 43.3762C2.48698 43.3871 2.6433 43.4728 2.66206 43.5492C2.7027 43.7236 2.55107 43.7673 2.40101 43.7766L1.72729 43.8156C2.21968 44.8126 2.69801 45.777 3.17946 46.7476C3.31233 46.3784 3.46396 45.9811 3.59839 45.5792C3.7547 45.09 3.89695 44.593 4.06733 44.1069C4.11267 43.9807 4.23616 43.814 4.34245 43.7953C4.44874 43.7766 4.61444 43.9168 4.67853 44.029C5.23189 44.984 5.804 45.9312 6.14633 46.9891C6.19242 47.0794 6.24966 47.1637 6.31672 47.2399C6.68406 46.0746 7.21553 45.0245 7.3781 43.8296C7.06547 43.8093 6.76534 43.8062 6.47147 43.7642C6.37299 43.7501 6.28858 43.6395 6.19792 43.5725C6.29171 43.4977 6.38237 43.3606 6.47929 43.356C7.0686 43.331 7.65947 43.3342 8.25034 43.3279C8.40666 43.3279 8.52702 43.37 8.53171 43.5476C8.5364 43.7252 8.42073 43.7735 8.26597 43.7813C8.13936 43.7891 8.0143 43.8093 7.85955 43.828C7.69073 45.1476 7.12018 46.3488 6.71689 47.6029C6.5934 47.9893 6.44959 48.371 6.29952 48.7496C6.26513 48.8384 6.16665 48.9677 6.10413 48.9646C6.04947 48.9556 5.99746 48.9348 5.9518 48.9036C5.90614 48.8724 5.86795 48.8315 5.83995 48.7838C5.58516 48.2837 5.37101 47.7665 5.10683 47.2695C4.7942 46.6619 4.44874 46.0683 4.11736 45.467L4.01888 45.481Z" fill="white"/>
<path d="M74.8471 71.8616C74.9917 71.9448 75.1292 72.0396 75.2582 72.1452C76.5087 73.4061 77.7592 74.6696 79.0097 75.9357C79.5516 76.4841 80.092 77.033 80.6307 77.5824C80.6823 77.6338 80.762 77.6806 80.7745 77.7382C80.7964 77.8488 80.8261 78.0186 80.7745 78.0685C80.6655 78.1253 80.5402 78.1429 80.4197 78.1183C80.3603 78.1183 80.304 78.0373 80.2525 77.9859C78.4329 76.1642 76.6155 74.3409 74.8002 72.516C74.7073 72.4224 74.6517 72.2984 74.6438 72.167C74.636 72.0735 74.7595 71.9769 74.8471 71.8616Z" fill="white"/>
<path d="M80.9497 14.7226C80.9021 14.8157 80.8439 14.903 80.7761 14.9827C78.9743 16.7744 77.1705 18.5634 75.3645 20.3498C75.3004 20.4137 75.2316 20.4979 75.1519 20.515C75.027 20.5589 74.8907 20.5589 74.7658 20.515C74.6095 20.4122 74.6689 20.2439 74.7658 20.1115C74.8304 20.0238 74.902 19.9415 74.98 19.8653C76.7703 18.1142 78.5622 16.3651 80.3557 14.6182C80.4417 14.5328 80.5451 14.467 80.6589 14.425C80.8309 14.3596 80.9559 14.4671 80.9497 14.7226Z" fill="white"/>
<path d="M17.2885 14.7412C17.2885 14.4733 17.4198 14.3564 17.6011 14.4296C17.7089 14.4764 17.8062 14.5442 17.8872 14.6291C19.69 16.3895 21.4903 18.1521 23.2879 19.9167L23.4223 20.0507C23.5661 20.2065 23.6287 20.3623 23.4645 20.5259C23.3004 20.6894 23.1519 20.6115 23.0144 20.4822C22.4672 19.9525 21.9227 19.4202 21.3809 18.8853C20.0803 17.5975 18.7818 16.3064 17.4855 15.0123C17.412 14.9279 17.3461 14.8372 17.2885 14.7412V14.7412Z" fill="white"/>
<path d="M23.6146 72.2745C23.5643 72.3676 23.5046 72.4553 23.4364 72.5363C21.6138 74.3642 19.7869 76.1896 17.956 78.0124C17.8649 78.0953 17.7512 78.1495 17.6293 78.1682C17.5865 78.1643 17.5456 78.1493 17.5105 78.1247C17.4753 78.1001 17.4473 78.0668 17.4292 78.028C17.4106 77.9194 17.4346 77.8078 17.4964 77.7164C17.7731 77.4048 18.0716 77.1135 18.364 76.8175C19.8865 75.2772 21.4095 73.7374 22.9331 72.1982C23.0242 72.0986 23.1334 72.0172 23.2551 71.9583C23.4473 71.8695 23.6334 72.0097 23.6146 72.2745Z" fill="white"/>
<path d="M74.3625 71.0141C74.3705 71.107 74.3579 71.2004 74.3257 71.2878C74.2934 71.3753 74.2424 71.4546 74.176 71.5203C74.1097 71.586 74.0298 71.6363 73.9418 71.6678C73.8538 71.6994 73.76 71.7113 73.6669 71.7027C73.5783 71.7099 73.4892 71.6977 73.4059 71.6669C73.3225 71.6362 73.2469 71.5877 73.1844 71.5247C73.1219 71.4618 73.0739 71.386 73.0438 71.3026C73.0137 71.2193 73.0023 71.1304 73.0104 71.0422C73.0083 70.9471 73.0263 70.8527 73.0631 70.7651C73.1 70.6774 73.1549 70.5984 73.2243 70.5332C73.2937 70.468 73.376 70.4181 73.466 70.3866C73.556 70.3551 73.6516 70.3428 73.7466 70.3504C74.1374 70.3567 74.3672 70.6028 74.3625 71.0141Z" fill="white"/>
<path d="M74.45 21.5619C74.45 21.9639 74.1937 22.1991 73.7701 22.196C73.6772 22.1938 73.5857 22.1731 73.501 22.1352C73.4163 22.0972 73.3401 22.0427 73.2769 21.9749C73.2136 21.9071 73.1647 21.8273 73.1329 21.7403C73.101 21.6534 73.087 21.5609 73.0916 21.4684C73.0916 21.0758 73.3574 20.8344 73.7794 20.8453C74.2015 20.8562 74.4532 21.1335 74.45 21.5619Z" fill="white"/>
<path d="M24.4212 22.1945C24.3324 22.2008 24.2434 22.1874 24.1605 22.1551C24.0776 22.1228 24.003 22.0726 23.9421 22.008C23.8812 21.9434 23.8354 21.866 23.8083 21.7816C23.7811 21.6972 23.7731 21.6078 23.785 21.5199C23.7825 21.4269 23.7996 21.3345 23.8353 21.2485C23.871 21.1626 23.9244 21.0851 23.992 21.0211C24.0597 20.957 24.1401 20.9079 24.228 20.8768C24.3159 20.8457 24.4094 20.8334 24.5024 20.8406C24.9245 20.8609 25.1683 21.1132 25.1465 21.5136C25.1451 21.6062 25.1251 21.6976 25.0876 21.7824C25.0501 21.8671 24.996 21.9435 24.9283 22.007C24.8607 22.0705 24.781 22.1198 24.6938 22.152C24.6067 22.1842 24.514 22.1986 24.4212 22.1945Z" fill="white"/>
<path d="M24.5025 70.3536C24.598 70.351 24.693 70.3678 24.7818 70.4028C24.8706 70.4378 24.9514 70.4904 25.0193 70.5573C25.0872 70.6243 25.1408 70.7042 25.1769 70.7924C25.213 70.8805 25.2309 70.975 25.2294 71.0702C25.2327 71.1544 25.2184 71.2384 25.1875 71.3169C25.1566 71.3953 25.1097 71.4665 25.0498 71.526C24.9898 71.5854 24.9181 71.6318 24.8393 71.6623C24.7604 71.6927 24.6761 71.7065 24.5916 71.7027C24.157 71.7027 23.8647 71.4348 23.8679 71.0297C23.871 70.5826 24.0898 70.3504 24.5025 70.3536Z" fill="white"/>
<path d="M70.4671 26.3495C70.4418 26.3819 70.4183 26.4157 70.3967 26.4508C70.0841 26.9664 70.2404 27.2671 70.836 27.3466C70.9358 27.3451 71.0354 27.355 71.133 27.3762C71.2111 27.4073 71.3268 27.5008 71.3206 27.5553C71.3113 27.6039 71.2906 27.6496 71.2602 27.6886C71.2297 27.7276 71.1904 27.7588 71.1455 27.7797C70.5781 27.9433 69.9247 27.5787 69.8121 27.0552C69.6824 26.4476 70.1685 25.7216 70.7719 25.6219C70.9155 25.5971 71.0627 25.6028 71.2039 25.6387C71.3451 25.6746 71.4771 25.7398 71.5913 25.8302C71.7054 25.9205 71.799 26.0339 71.8661 26.1629C71.9331 26.2918 71.972 26.4335 71.9802 26.5785C71.9927 26.7343 71.9536 26.9664 71.8489 27.0459C71.7737 27.0773 71.6923 27.091 71.6109 27.0859C71.5296 27.0808 71.4505 27.0569 71.38 27.0163C71.0644 26.8098 70.7597 26.5872 70.4671 26.3495Z" fill="white"/>
<path d="M69.3104 26.2903C69.154 26.3059 69.0306 26.3557 68.9477 26.3168C68.8034 26.2613 68.6811 26.1607 68.5991 26.0301C68.5632 25.9491 68.6617 25.7637 68.7554 25.6811C69.0524 25.4054 69.3932 25.1732 69.5542 24.7837C69.1744 24.3382 69.0352 24.3288 68.6163 24.6996C68.4256 24.8679 68.238 25.0392 68.0442 25.2028C67.8769 25.3462 67.705 25.3462 67.4893 25.1654C67.6987 24.9645 67.8957 24.7697 68.0958 24.5812C68.2521 24.4254 68.4084 24.2868 68.5804 24.145C68.7523 24.0032 68.7445 23.8973 68.5882 23.7415C68.5149 23.6324 68.4619 23.511 68.4319 23.3832C68.5882 23.4018 68.8367 23.3645 68.9008 23.4501C69.1613 23.8422 69.4907 24.1842 69.8731 24.4597C70.0513 24.589 70.0294 24.8274 69.9294 25.0096C69.8082 25.2194 69.6623 25.414 69.4948 25.5892C69.3072 25.7762 69.1556 25.9615 69.3104 26.2903Z" fill="white"/>
<path d="M29.3607 25.1872C29.2779 24.8943 29.1825 24.6046 29.1216 24.3086C29.1125 24.175 29.1219 24.0407 29.1497 23.9097C29.2854 23.9089 29.4203 23.9289 29.5499 23.9689C29.783 24.1041 30.0247 24.2238 30.2736 24.3272C30.2549 24.2494 30.2392 24.1715 30.2142 24.092C30.1251 23.8162 30.0267 23.5452 29.9422 23.2679C29.9 23.1308 29.9016 22.9968 30.0735 22.9345C30.2455 22.8721 30.3377 22.9703 30.3862 23.1089C30.5738 23.6745 30.7645 24.24 30.927 24.8133C30.9583 24.9224 30.9005 25.1436 30.8223 25.1779C30.7533 25.1948 30.6816 25.1981 30.6113 25.1874C30.541 25.1767 30.4736 25.1523 30.4128 25.1156C30.2173 24.9965 30.0298 24.8648 29.8516 24.7214L29.7781 24.7759C29.8047 24.913 29.8266 25.0517 29.8578 25.1872C29.9035 25.3044 29.9365 25.4261 29.9563 25.5502C29.9717 25.6786 29.937 25.808 29.8594 25.9117C29.8018 25.937 29.7392 25.9493 29.6762 25.9477C29.6133 25.9461 29.5514 25.9306 29.4952 25.9023C29.07 25.7014 28.6542 25.4817 28.2447 25.2558C28.1102 25.1826 27.9648 25.0719 28.0696 24.8881C28.1743 24.7043 28.3525 24.7791 28.4994 24.8507C28.7636 24.9816 29.0231 25.1234 29.281 25.2589L29.3607 25.1872Z" fill="white"/>
<path d="M26.3642 27.007C26.3389 27.0443 26.3096 27.0788 26.2767 27.1098C26.1845 27.1814 26.0875 27.2469 25.9938 27.3154C25.9362 27.1824 25.8938 27.0434 25.8671 26.901C25.8671 26.8309 25.9453 26.7452 26.0031 26.6782C26.1735 26.4804 26.3627 26.2981 26.5237 26.0924C26.7957 25.745 27.0442 25.6251 27.4428 25.8167C27.7754 25.9956 28.086 26.2126 28.3682 26.4632C28.5151 26.5816 28.6214 26.6829 28.8106 26.5489C28.8435 26.5312 28.8803 26.5219 28.9176 26.5219C28.955 26.5219 28.9918 26.5312 29.0247 26.5489C29.0794 26.6159 29.1373 26.7515 29.106 26.8075C29.0221 26.9764 28.8981 27.1224 28.7449 27.2329C28.673 27.2765 28.4729 27.169 28.3698 27.0771C28.0477 26.8138 27.7554 26.5178 27.4319 26.2591C27.3953 26.2275 27.3527 26.2035 27.3066 26.1888C27.2604 26.174 27.2118 26.1687 27.1636 26.1732C27.1153 26.1777 27.0685 26.192 27.026 26.215C26.9834 26.2381 26.946 26.2695 26.916 26.3074C26.7409 26.4897 26.7331 26.6424 26.9051 26.8278C27.1739 27.1176 27.4412 27.4089 27.7164 27.6924C27.7748 27.7493 27.8488 27.7877 27.9289 27.8031C28.0978 27.8358 28.1884 27.9074 28.1681 28.0928C28.1462 28.3032 28.0556 28.4823 27.843 28.5026C27.7763 28.5009 27.7111 28.4832 27.6528 28.4509C27.5946 28.4186 27.545 28.3727 27.5085 28.3172C27.2709 27.7703 26.8207 27.4073 26.3642 27.007Z" fill="white"/>
<path d="M70.0497 66.588C70.1569 66.7066 70.2942 66.7942 70.4472 66.8414C70.6002 66.8885 70.7632 66.8936 70.9188 66.856C71.0173 66.8388 71.1189 66.7111 71.1705 66.6083C71.2021 66.4868 71.2261 66.3635 71.2424 66.239C71.269 66.158 71.3378 66.0412 71.3987 66.0318C71.4439 66.0371 71.4872 66.0528 71.5252 66.0777C71.5631 66.1026 71.5948 66.1359 71.6176 66.1752C71.7032 66.3521 71.7186 66.5548 71.6606 66.7426C71.6026 66.9304 71.4756 67.0894 71.3049 67.1878C70.836 67.4184 70.3842 67.3343 69.9606 67.0694C69.7663 66.9653 69.6072 66.8062 69.5034 66.6121C69.3997 66.418 69.3559 66.1977 69.3776 65.9789C69.4307 65.3416 70.0872 65.0441 70.6281 65.1999C70.8673 65.2684 70.9188 65.5489 70.7359 65.781C70.5202 66.0568 70.2904 66.3045 70.0497 66.588Z" fill="white"/>
<path d="M68.3662 67.6038C68.5476 67.5664 68.7336 67.543 68.9087 67.4885C69.3276 67.3607 69.5949 67.4028 69.7762 67.6443C70.0185 67.973 70.0701 68.537 69.881 68.7972C69.7576 68.9424 69.5966 69.0512 69.4155 69.1116C69.2345 69.172 69.0402 69.1818 68.854 69.1399C68.8179 69.1333 68.784 69.1177 68.7555 69.0947C68.6883 69.0106 68.6273 68.9187 68.5648 68.8314C68.6567 68.7788 68.7542 68.7365 68.8555 68.7052C68.9552 68.704 69.0549 68.7082 69.1541 68.7177C69.4745 68.6928 69.6105 68.5136 69.5527 68.2083C69.4949 67.9029 69.3385 67.8157 69.0181 67.8967C68.8228 67.9684 68.6189 68.0139 68.4116 68.0322C68.2293 68.0253 68.0547 67.9572 67.9161 67.839C67.8489 67.7687 67.8099 67.6763 67.8065 67.5793C67.803 67.4823 67.8353 67.3873 67.8973 67.3124C67.9952 67.1494 68.1163 67.0015 68.2568 66.8731C68.3105 66.8279 68.3728 66.794 68.4399 66.7734C68.5071 66.7528 68.5777 66.7459 68.6476 66.7531C68.7069 66.7814 68.7594 66.822 68.8015 66.8723C68.8436 66.9226 68.8743 66.9813 68.8915 67.0445C68.9399 67.2143 68.7899 67.2221 68.657 67.2548C68.5326 67.3068 68.4158 67.3755 68.31 67.4589L68.3662 67.6038Z" fill="white"/>
<path d="M28.2228 67.5773C28.5354 67.4776 28.7589 67.3888 28.9965 67.3343C29.0494 67.3198 29.1047 67.317 29.1587 67.3262C29.2128 67.3353 29.2641 67.3562 29.3092 67.3872C29.3306 67.4364 29.3417 67.4894 29.3417 67.543C29.3417 67.5966 29.3306 67.6496 29.3092 67.6988C29.1857 68.0229 29.0403 68.3376 28.9028 68.6554L28.9809 68.7146C29.3483 68.5775 29.7156 68.4388 30.0861 68.3064C30.202 68.2575 30.326 68.2306 30.4518 68.227C30.498 68.2289 30.5424 68.2453 30.5788 68.2738C30.6151 68.3022 30.6415 68.3414 30.6543 68.3856C30.6671 68.4299 30.6656 68.4771 30.65 68.5204C30.6344 68.5638 30.6056 68.6012 30.5675 68.6273C30.0188 68.8361 29.4733 69.0511 28.9043 69.21C28.5917 69.2973 28.4119 69.101 28.4541 68.7816C28.487 68.5245 28.5682 68.2737 28.6448 67.9528C28.4885 67.9917 28.3682 68.0197 28.2494 68.0556C28.0727 68.1054 27.893 68.1678 27.7476 67.9933C27.6022 67.8188 27.6725 67.6567 27.7476 67.4854C27.9039 67.1582 28.0508 66.8295 28.2009 66.5008C28.2775 66.3341 28.3822 66.2281 28.5839 66.3045C28.7402 66.3668 28.9809 66.6971 28.9246 66.8139C28.9012 66.8606 28.7933 66.9167 28.7558 66.8996C28.5041 66.7859 28.4338 66.9588 28.3635 67.1317C28.3244 67.261 28.2931 67.3888 28.2228 67.5773Z" fill="white"/>
<path d="M27.1989 65.3214C27.1614 65.7296 27.1552 66.1206 27.0817 66.4992C26.9879 66.979 26.7097 67.1785 26.2876 67.1442C26.0857 67.1084 25.8997 67.0114 25.7551 66.8664C25.6105 66.7214 25.5142 66.5355 25.4795 66.3341C25.4576 66.0926 25.6936 65.7109 25.9359 65.6532C25.99 65.6492 26.0443 65.6565 26.0954 65.6744C26.1465 65.6924 26.1933 65.7207 26.2329 65.7576C26.2626 65.7841 26.211 65.9617 26.1485 66.0147C25.9828 66.1533 25.8624 66.2998 26.0297 66.4821C26.0752 66.5335 26.1309 66.5751 26.1934 66.604C26.2558 66.633 26.3235 66.6487 26.3924 66.6503C26.453 66.631 26.5079 66.597 26.5521 66.5513C26.5963 66.5056 26.6284 66.4497 26.6456 66.3886C26.6909 66.077 26.669 65.7654 26.7034 65.4538C26.7253 65.2684 26.7519 64.9989 26.8691 64.9319C27.0644 64.8548 27.2819 64.8548 27.4772 64.9319C27.6574 65.0154 27.8114 65.1463 27.9227 65.3105C27.9571 65.3559 27.9794 65.4094 27.9875 65.4658C27.9956 65.5221 27.9892 65.5797 27.9689 65.6329C27.9486 65.6861 27.915 65.7334 27.8714 65.7702C27.8278 65.807 27.7755 65.8321 27.7195 65.8433C27.5491 65.8807 27.4162 65.8433 27.4475 65.6299C27.4787 65.4164 27.3912 65.3323 27.1989 65.3214Z" fill="white"/>
</g>
<defs>
<clipPath id="clip0">
<rect width="93" height="94" fill="white"/>
</clipPath>
</defs>
</svg>
